<?xml version="1.0" standalone="no"?>
<!DOCTYPE svg PUBLIC "-//W3C//DTD SVG 20010904//EN"
 "http://www.w3.org/TR/2001/REC-SVG-20010904/DTD/svg10.dtd">
<svg version="1.0" xmlns="http://www.w3.org/2000/svg"
 width="1024.000000pt" height="1536.000000pt" viewBox="0 0 1024.000000 1536.000000"
 preserveAspectRatio="xMidYMid meet">
<metadata>
Created by potrace 1.16, written by Peter Selinger 2001-2019
</metadata>
<g transform="translate(0.000000,1536.000000) scale(0.100000,-0.100000)"
fill="#000000" stroke="none">
<path d="M1142 14430 c-160 -57 -297 -194 -349 -350 -17 -53 -18 -152 -21
-2285 -1 -1226 -2 -2301 -2 -2388 l0 -157 -93 6 c-107 8 -137 -2 -137 -42 0
-37 40 -68 141 -110 l89 -37 0 -417 0 -417 -37 -7 c-72 -11 -165 -6 -260 16
-93 21 -96 21 -109 3 -24 -32 -16 -59 29 -102 73 -71 193 -141 289 -170 l88
-26 2 -430 c3 -422 3 -430 -17 -438 -11 -4 -56 -23 -100 -40 -114 -47 -147
-85 -108 -124 14 -15 29 -16 91 -11 41 4 88 10 104 13 l28 6 0 -1919 c0 -1056
1 -2308 3 -2784 3 -957 -1 -900 68 -1031 58 -109 205 -229 325 -265 40 -12
609 -14 3953 -14 l3906 0 68 24 c91 33 154 75 227 152 62 67 110 148 130 223
8 32 11 747 11 2828 0 2480 1 2784 15 2779 8 -3 57 -9 109 -12 103 -7 125 0
125 41 0 12 -8 29 -18 37 -22 20 -145 81 -194 97 l-37 12 2 396 2 395 70 22
c100 32 190 80 266 142 71 58 95 98 85 139 -8 32 -27 32 -154 0 -76 -20 -118
-25 -183 -23 l-84 3 -2 448 -3 448 78 35 c148 67 186 112 127 150 -21 13 -34
14 -94 5 -38 -6 -79 -11 -90 -11 l-21 0 1 2394 c0 2298 -1 2397 -19 2449 -45
136 -155 259 -289 324 l-78 38 -3940 2 c-3836 2 -3941 1 -3993 -17z m7973
-117 c96 -51 159 -113 202 -201 l38 -76 3 -2407 2 -2407 -27 -6 c-65 -13
-1231 -203 -1478 -241 -209 -32 -217 -33 -284 -45 -30 -6 -57 -10 -60 -10 -11
0 68 63 147 116 65 44 113 66 225 104 78 26 164 57 190 69 27 12 54 18 59 14
7 -3 8 -1 4 5 -4 6 4 16 16 23 50 27 122 97 192 188 135 177 225 240 406 285
152 39 256 92 339 174 113 112 173 270 122 321 -11 11 -27 21 -33 21 -7 0 -44
-27 -82 -60 -89 -77 -152 -101 -271 -106 -49 -2 -139 -6 -200 -8 -199 -7 -325
-67 -500 -234 -108 -104 -174 -155 -192 -148 -8 3 -11 1 -8 -4 10 -16 -89 -59
-212 -91 -133 -35 -312 -115 -397 -178 -31 -23 -56 -39 -56 -36 0 10 105 121
379 405 497 513 512 529 530 523 12 -4 13 -3 3 5 -10 7 32 56 173 200 103 106
192 189 198 185 6 -4 7 -1 2 6 -4 8 23 44 77 99 46 48 114 124 151 168 74 91
85 126 43 145 -20 10 -36 6 -98 -24 -75 -37 -293 -172 -465 -288 -54 -37 -213
-143 -353 -236 -140 -93 -333 -221 -428 -286 -112 -75 -179 -114 -190 -111
-13 4 -14 3 -4 -4 17 -12 -111 -98 -129 -86 -8 4 -9 3 -5 -4 4 -6 -6 -19 -21
-29 -15 -10 -61 -41 -100 -71 -40 -29 -73 -51 -73 -48 0 3 18 24 40 48 51 55
115 167 157 277 90 228 143 299 309 412 124 85 210 176 260 277 30 60 41 103
64 235 15 89 40 195 55 236 51 133 140 249 265 343 55 41 59 59 25 94 -25 25
-31 26 -91 21 -83 -8 -230 -66 -311 -123 -107 -76 -171 -167 -258 -369 -86
-197 -125 -242 -322 -372 -65 -42 -154 -112 -199 -155 -44 -43 -85 -74 -89
-70 -5 4 -5 2 -1 -5 4 -7 -4 -29 -17 -50 -26 -42 -37 -65 -106 -221 -26 -59
-58 -124 -72 -144 -32 -47 -206 -210 -195 -183 5 11 30 81 56 155 26 74 64
178 85 230 20 52 58 156 82 230 25 74 72 205 105 290 32 85 140 373 239 640
99 267 192 514 206 550 47 119 40 166 -23 158 -23 -3 -44 -29 -134 -168 -59
-91 -170 -262 -248 -382 -77 -119 -167 -258 -198 -310 -57 -93 -306 -478 -465
-720 -46 -70 -102 -157 -124 -192 -21 -36 -40 -64 -41 -63 -1 1 4 31 12 67 9
41 14 132 14 247 0 215 10 259 97 406 143 244 178 354 171 546 -5 117 -8 135
-53 266 -53 158 -66 257 -45 347 15 63 76 199 117 260 41 60 46 77 28 104 -38
58 -148 11 -280 -121 -105 -104 -155 -193 -182 -318 -16 -72 -15 -89 2 -276
26 -279 14 -326 -140 -552 -135 -197 -175 -313 -190 -541 -8 -133 -39 -293
-73 -379 -14 -38 -28 -66 -31 -63 -3 2 -12 67 -21 144 l-16 140 56 2 55 2 -57
3 c-32 2 -58 7 -58 10 0 4 -18 174 -40 377 -22 204 -61 558 -85 786 -57 524
-103 904 -116 951 -9 37 -24 49 -59 49 -38 0 -45 -36 -90 -440 -33 -300 -63
-568 -85 -755 -8 -66 -22 -187 -30 -270 -9 -82 -20 -184 -25 -225 -5 -41 -14
-122 -20 -180 -11 -113 -56 -473 -68 -555 l-8 -50 -32 95 c-44 132 -69 253
-82 403 -16 193 -49 284 -175 492 -132 218 -150 303 -125 582 17 184 9 240
-55 369 -62 125 -149 220 -247 269 -80 40 -113 44 -128 16 -17 -33 -11 -60 29
-130 59 -101 83 -181 82 -276 -1 -80 -6 -106 -72 -340 -30 -107 -34 -133 -33
-245 0 -173 30 -262 158 -470 84 -135 103 -220 107 -464 1 -61 7 -145 14 -186
7 -41 12 -76 11 -77 -2 -3 -158 234 -164 248 -2 4 5 9 15 12 12 3 9 5 -9 6
-22 1 -35 16 -80 89 -30 48 -118 184 -194 302 -77 118 -154 238 -172 265 -17
28 -90 140 -161 250 -72 110 -151 234 -177 275 -184 289 -247 380 -270 386
-30 8 -54 -11 -54 -41 0 -12 31 -108 70 -211 38 -104 107 -295 154 -424 47
-129 133 -365 191 -525 59 -159 119 -326 135 -370 15 -44 58 -161 95 -260 108
-287 165 -440 165 -445 0 -3 -8 4 -18 16 -9 11 -56 55 -104 98 -87 78 -165
177 -153 196 4 6 1 9 -5 8 -7 -2 -40 53 -74 121 -45 88 -81 144 -125 192 l-62
68 133 4 133 3 -143 1 -142 1 -33 29 c-19 16 -69 51 -113 78 -183 113 -228
172 -303 398 -60 178 -114 282 -186 353 -114 114 -357 185 -485 141 -27 -9
-36 -18 -38 -39 -3 -29 -6 -26 118 -107 155 -102 217 -221 255 -491 21 -144
42 -242 66 -298 11 -24 19 -48 19 -52 0 -5 -37 -11 -82 -13 l-83 -3 85 0 85 1
41 -55 c48 -65 80 -94 203 -179 137 -95 177 -146 283 -356 79 -158 119 -228
138 -245 3 -3 37 -41 75 -85 l70 -79 -55 39 c-30 21 -71 51 -90 66 -19 14 -66
48 -105 74 -38 27 -135 94 -215 148 -615 424 -1216 817 -1377 901 -42 22 -56
25 -72 16 -45 -24 -14 -80 136 -248 47 -52 81 -98 77 -104 -4 -6 -3 -8 3 -5 9
6 116 -103 393 -397 74 -79 623 -647 867 -896 88 -91 160 -166 159 -167 -3 -4
-130 43 -157 58 -13 7 -75 51 -138 98 -247 187 -294 210 -530 262 -148 33
-227 59 -280 91 -49 31 -146 119 -143 130 1 5 -1 7 -6 4 -4 -2 -41 22 -81 54
-85 68 -229 142 -321 166 -94 23 -241 15 -338 -19 -83 -29 -112 -50 -112 -82
0 -33 31 -54 96 -67 149 -28 268 -85 353 -168 25 -25 85 -102 132 -170 164
-237 276 -318 531 -381 187 -46 238 -73 393 -205 33 -28 90 -72 128 -98 37
-26 67 -49 67 -50 0 -2 -96 14 -212 35 -117 21 -294 52 -393 69 -99 17 -211
38 -250 45 -172 33 -885 155 -908 155 -4 0 -7 1070 -7 2378 0 2005 2 2384 14
2423 39 128 120 225 239 284 l70 35 3926 -2 3926 -3 60 -32z m-2930 -1642
c-61 -85 -89 -178 -88 -296 0 -87 5 -115 37 -215 69 -216 70 -219 70 -345 0
-154 -24 -230 -130 -410 -120 -203 -126 -226 -135 -495 -10 -294 -20 -334
-163 -614 -36 -70 -69 -146 -72 -167 -4 -21 -12 -39 -18 -39 -6 0 -43 9 -82
19 -40 11 -92 23 -118 26 l-46 7 6 82 c8 109 17 139 82 291 70 164 99 276 112
440 15 169 35 292 62 363 12 31 64 120 116 197 170 251 184 302 157 595 -9
107 -14 212 -10 238 9 62 57 174 102 240 32 47 142 147 151 138 2 -2 -13 -27
-33 -55z m-1046 -98 c7 -76 14 -149 16 -163 4 -24 43 -387 64 -595 9 -90 33
-318 46 -435 4 -45 17 -153 55 -490 11 -96 24 -220 30 -275 32 -339 42 -456
38 -460 -2 -2 -47 -1 -101 2 l-97 6 -1 116 c0 64 -2 157 -4 206 -11 258 -17
380 -21 399 -4 26 -12 196 -19 466 -4 113 -8 230 -10 260 -2 30 -4 72 -4 93
-1 20 -5 37 -10 37 -5 0 -9 -15 -8 -32 0 -18 -2 -105 -6 -193 -4 -88 -9 -254
-12 -370 -5 -219 -12 -404 -20 -515 -2 -36 -7 -152 -11 -257 -6 -174 -5 -193
10 -193 9 0 16 -4 16 -8 0 -4 -8 -8 -17 -8 -10 0 -66 -4 -125 -8 -124 -8 -114
-20 -98 109 5 44 14 127 19 185 6 58 17 161 26 230 8 69 22 186 30 260 37 345
55 512 79 720 72 635 85 755 96 875 12 132 18 175 24 175 2 0 9 -62 15 -137z
m-998 40 c50 -56 97 -133 121 -200 19 -51 21 -73 17 -193 -2 -74 -4 -196 -3
-270 1 -183 8 -204 160 -462 112 -189 128 -240 150 -467 19 -198 47 -312 119
-481 66 -154 74 -189 75 -306 0 -102 2 -98 -74 -109 l-46 -7 0 83 c0 81 -11
153 -29 194 -30 69 -113 290 -129 344 -14 46 -20 100 -21 190 -3 168 -8 225
-27 291 -19 67 -93 210 -167 322 -91 139 -117 253 -95 418 4 30 10 80 13 110
5 54 5 54 -10 26 -25 -47 -56 -186 -56 -256 -1 -74 4 -99 37 -192 25 -71 147
-291 157 -282 3 3 16 -1 29 -10 12 -9 18 -16 12 -16 -5 0 -16 6 -23 13 -12 10
-13 8 -6 -8 62 -159 62 -157 75 -395 11 -212 27 -290 96 -448 48 -110 99 -252
114 -318 5 -22 12 -47 15 -56 4 -11 -6 -17 -40 -25 -52 -12 -49 -14 -83 73
-11 27 -49 110 -85 184 -99 204 -120 289 -132 515 -16 316 -24 347 -149 553
-136 223 -158 386 -82 619 46 140 76 273 76 338 0 71 -24 174 -55 234 -23 46
-24 51 -7 42 10 -5 34 -27 53 -48z m2913 -590 c-20 -43 -85 -213 -146 -378
-60 -165 -142 -383 -180 -485 -76 -200 -108 -285 -170 -455 -22 -60 -72 -193
-110 -295 -38 -102 -99 -270 -135 -375 -36 -104 -67 -191 -68 -193 -2 -2 -27
12 -56 31 -112 71 -305 161 -391 182 -16 4 -28 13 -28 20 0 7 64 107 141 221
78 115 178 265 223 334 44 69 144 220 221 335 78 116 176 266 218 335 85 136
113 181 333 525 81 127 153 240 161 253 27 44 22 20 -13 -55z m-3679 -253 c72
-109 148 -227 170 -261 22 -35 76 -120 121 -189 44 -69 106 -165 138 -215 32
-49 119 -185 194 -302 75 -116 182 -282 237 -367 55 -86 130 -202 167 -259
l67 -102 -32 -14 c-74 -31 -191 -70 -176 -58 10 8 13 17 8 27 -5 8 -33 67 -63
130 -30 63 -66 132 -80 153 -14 21 -36 57 -48 80 -11 23 -40 74 -63 112 -23
39 -56 95 -72 125 -17 30 -63 111 -102 180 -39 69 -90 160 -113 202 -23 42
-46 74 -51 71 -6 -3 -7 -1 -3 5 8 13 -27 86 -56 116 -20 20 -21 20 -13 1 4
-11 10 -28 12 -37 3 -10 10 -15 16 -11 6 3 7 1 3 -5 -4 -6 2 -29 14 -51 11
-22 27 -60 35 -85 14 -41 39 -96 195 -421 62 -130 120 -261 120 -270 0 -22 54
-124 63 -118 5 3 7 1 4 -4 -4 -6 4 -36 18 -67 13 -30 32 -72 40 -93 13 -30 18
-35 26 -23 7 11 8 9 4 -10 -3 -14 -1 -31 4 -39 7 -11 13 -11 32 3 14 9 18 16
10 16 -8 0 -12 2 -10 5 3 2 15 2 28 -2 19 -5 8 -14 -68 -54 -50 -26 -104 -57
-121 -69 -22 -16 -31 -18 -34 -8 -2 7 -29 81 -61 163 -31 83 -78 209 -105 280
-26 72 -84 227 -128 345 -70 188 -268 727 -382 1040 -21 58 -59 157 -83 220
-59 154 -64 175 -25 112 18 -30 92 -143 163 -252z m805 180 c0 -5 -5 -10 -11
-10 -5 0 -7 5 -4 10 3 6 8 10 11 10 2 0 4 -4 4 -10z m-23 -72 c-3 -8 -6 -5 -6
6 -1 11 2 17 5 13 3 -3 4 -12 1 -19z m-1856 -92 c76 -23 169 -75 219 -122 57
-54 101 -139 161 -314 84 -247 121 -298 313 -425 228 -150 260 -185 376 -415
68 -135 91 -161 376 -430 86 -82 179 -199 199 -252 4 -11 -19 -33 -77 -76 -46
-33 -99 -77 -117 -96 -19 -20 -38 -36 -41 -36 -4 0 -43 46 -88 103 -44 56
-133 151 -197 211 -155 145 -200 207 -306 421 -104 212 -147 267 -283 358
-224 150 -263 218 -311 547 -41 287 -100 405 -249 502 -63 40 -55 48 25 24z
m5609 -86 c-52 -53 -80 -94 -119 -172 -54 -112 -69 -161 -101 -343 -25 -139
-44 -193 -91 -261 -51 -74 -104 -123 -221 -202 -159 -109 -193 -152 -272 -345
-102 -248 -145 -311 -371 -532 -95 -93 -179 -180 -188 -193 l-15 -24 -100 79
c-55 43 -108 83 -117 88 -16 9 -16 14 -5 35 50 94 112 170 246 296 80 76 163
164 184 195 21 30 64 114 95 185 32 71 72 152 90 179 44 69 133 149 262 235
248 166 241 158 401 490 89 187 144 247 282 315 52 25 97 45 100 45 4 0 -23
-31 -60 -70z m-3681 -114 c7 -8 8 -17 3 -20 -6 -3 -12 3 -15 14 -6 24 -4 25
12 6z m55 -102 c3 -8 2 -12 -4 -9 -6 3 -10 10 -10 16 0 14 7 11 14 -7z m59
-85 c-4 -16 -8 -17 -14 -7 -13 19 -11 28 5 28 9 0 12 -7 9 -21z m60 -83 c4
-11 1 -13 -11 -10 -11 4 -8 -2 8 -16 24 -20 10 -18 -18 3 -9 7 -9 13 -1 23 14
17 16 17 22 0z m720 -3 c-5 -12 -3 -14 8 -8 11 7 12 6 2 -7 -7 -8 -9 -19 -5
-23 4 -5 1 -5 -5 -1 -15 8 -18 56 -3 56 5 0 6 -7 3 -17z m-688 -102 c0 -16 -3
-27 -7 -24 -13 7 -7 53 6 53 1 0 1 -13 1 -29z m702 -53 c-3 -7 -5 -2 -5 12 0
14 2 19 5 13 2 -7 2 -19 0 -25z m-700 -120 c-3 -8 -6 -5 -6 6 -1 11 2 17 5 13
3 -3 4 -12 1 -19z m28 -27 c-3 -6 -11 -11 -17 -11 -6 0 -6 6 2 15 14 17 26 13
15 -4z m660 -51 c-3 -5 -12 -10 -18 -10 -7 0 -6 4 3 10 19 12 23 12 15 0z
m-1380 -10 c3 -5 2 -10 -4 -10 -5 0 -13 5 -16 10 -3 6 -2 10 4 10 5 0 13 -4
16 -10z m-1212 -627 c83 -56 222 -151 307 -210 308 -216 397 -278 530 -368 74
-50 167 -113 205 -140 l71 -49 -41 -40 c-70 -72 -150 -168 -210 -256 -74 -108
-70 -104 -86 -87 -8 7 -129 133 -269 278 -140 145 -325 336 -410 424 -338 349
-452 468 -614 640 -93 99 -208 221 -255 270 -47 50 -97 103 -111 119 -14 16
145 -85 353 -225 207 -140 446 -300 530 -356z m5975 495 c-130 -142 -270 -289
-518 -543 -107 -110 -260 -267 -340 -350 -79 -82 -210 -218 -290 -300 -149
-155 -254 -266 -373 -395 -54 -58 -71 -71 -78 -59 -5 8 -19 30 -31 49 -45 71
-141 194 -206 262 -37 38 -67 75 -67 81 0 7 83 68 185 137 102 69 228 156 280
192 52 37 298 203 545 370 248 166 572 384 720 484 149 100 271 182 273 183 2
1 -43 -50 -100 -111z m-4038 72 c0 -5 -2 -10 -4 -10 -3 0 -8 5 -11 10 -3 6 -1
10 4 10 6 0 11 -4 11 -10z m645 1 c3 -5 2 -12 -3 -15 -5 -3 -9 1 -9 9 0 17 3
19 12 6z m-668 -83 c-3 -8 -6 -5 -6 6 -1 11 2 17 5 13 3 -3 4 -12 1 -19z m14
-25 c-12 -20 -14 -14 -5 12 4 9 9 14 11 11 3 -2 0 -13 -6 -23z m-616 -63 c3
-5 1 -10 -4 -10 -6 0 -11 5 -11 10 0 6 2 10 4 10 3 0 8 -4 11 -10z m640 -39
c-6 -5 -25 10 -25 20 0 5 6 4 14 -3 8 -7 12 -15 11 -17z m-601 10 c3 -5 -1
-11 -9 -14 -9 -4 -12 -1 -8 9 6 16 10 17 17 5z m1234 -77 c-3 -14 -5 -12 -10
9 -3 19 -2 25 4 19 6 -6 8 -18 6 -28z m-613 6 c3 -5 1 -10 -4 -10 -6 0 -11 5
-11 10 0 6 2 10 4 10 3 0 8 -4 11 -10z m-560 -20 c3 -6 -1 -7 -9 -4 -18 7 -21
14 -7 14 6 0 13 -4 16 -10z m563 -25 c-3 -3 -9 2 -12 12 -6 14 -5 15 5 6 7 -7
10 -15 7 -18z m652 -70 c14 -19 14 -19 -2 -6 -10 7 -18 18 -18 24 0 6 1 8 3 6
1 -2 9 -13 17 -24z m-616 -11 c3 -8 2 -12 -4 -9 -6 3 -10 10 -10 16 0 14 7 11
14 -7z m551 -23 c3 -5 1 -12 -5 -16 -5 -3 -10 1 -10 9 0 18 6 21 15 7z m56
-48 c12 -16 12 -17 -2 -6 -9 7 -19 10 -22 6 -4 -3 -7 -1 -7 5 0 17 16 15 31
-5z m-60 -60 c-12 -20 -14 -14 -5 12 4 9 9 14 11 11 3 -2 0 -13 -6 -23z m-461
-7 c0 -2 -8 -10 -17 -17 -16 -13 -17 -12 -4 4 13 16 21 21 21 13z m7 -52 c-3
-3 -12 -4 -19 -1 -8 3 -5 6 6 6 11 1 17 -2 13 -5z m-574 -19 c-3 -9 -8 -14
-10 -11 -3 3 -2 9 2 15 9 16 15 13 8 -4z m48 -8 c-10 -9 -11 -8 -5 6 3 10 9
15 12 12 3 -3 0 -11 -7 -18z m531 -31 c2 -19 0 -32 -4 -30 -8 5 -12 64 -4 64
2 0 6 -15 8 -34z m457 12 c-17 -33 -20 -35 -15 -7 2 13 5 25 5 27 1 1 6 2 11
2 7 0 7 -8 -1 -22z m-1024 -28 c3 -6 -1 -7 -9 -4 -18 7 -21 14 -7 14 6 0 13
-4 16 -10z m1019 -26 c3 -8 2 -12 -4 -9 -6 3 -10 10 -10 16 0 14 7 11 14 -7z
m-934 -4 c0 -5 -5 -10 -11 -10 -5 0 -7 5 -4 10 3 6 8 10 11 10 2 0 4 -4 4 -10z
m1020 -26 c0 -2 -19 -4 -42 -4 -26 0 -38 4 -30 8 12 8 72 4 72 -4z m-1020 -16
c0 -13 -23 -5 -28 10 -2 7 2 10 12 6 9 -3 16 -11 16 -16z m-2 -34 c1 0 -4 -13
-12 -28 -10 -20 -15 -23 -19 -12 -3 8 1 17 10 20 12 5 13 9 3 21 -7 8 -17 12
-23 8 -6 -3 -7 -1 -3 6 6 9 12 9 24 -1 10 -7 18 -13 20 -14z m-2788 -50 c123
-28 222 -89 454 -278 101 -82 159 -110 293 -141 59 -14 144 -34 189 -44 113
-27 211 -78 338 -176 59 -47 140 -105 180 -129 70 -44 298 -145 406 -181 30
-10 56 -19 58 -20 3 -2 -45 -103 -52 -112 -5 -6 -205 70 -291 109 -94 43 -205
105 -216 121 -4 5 -12 6 -18 3 -6 -4 -10 -3 -9 2 5 14 -144 132 -237 188 -81
49 -151 73 -306 109 -157 35 -213 56 -286 105 -36 25 -48 29 -55 18 -8 -10 -9
-9 -5 3 4 11 -19 39 -73 88 -43 39 -82 71 -85 71 -13 0 125 -154 187 -209 24
-21 30 -22 45 -10 16 12 17 12 5 -2 -10 -13 -10 -18 0 -26 37 -30 113 -57 246
-89 151 -36 227 -62 274 -95 28 -20 53 -25 43 -9 -3 6 -1 10 5 10 7 0 10 -6 7
-14 -6 -15 29 -46 173 -155 52 -39 100 -69 107 -67 7 3 12 0 10 -5 -3 -14 169
-105 243 -129 53 -17 125 -34 183 -43 15 -2 27 0 28 7 0 7 2 7 5 -1 3 -6 -9
-45 -27 -86 l-32 -75 -69 25 c-131 47 -373 163 -453 218 -45 29 -114 82 -155
117 -41 35 -88 73 -105 85 -53 36 -168 81 -301 117 -148 40 -175 52 -261 113
-65 46 -131 121 -223 257 -113 164 -244 267 -399 312 -65 19 -72 23 -46 26 66
10 163 7 225 -8z m4002 -18 c291 -37 551 -129 796 -282 297 -187 503 -393 669
-669 143 -239 229 -474 275 -750 28 -167 30 -442 4 -619 -85 -586 -394 -1078
-885 -1408 -224 -150 -456 -244 -726 -294 -114 -21 -178 -27 -345 -30 -277 -5
-381 9 -630 82 -311 92 -602 265 -831 493 -268 269 -479 666 -553 1041 -79
404 -53 744 89 1135 98 271 335 623 536 795 35 30 75 65 89 78 142 131 423
285 633 346 129 37 305 75 398 85 134 14 355 12 481 -3z m3677 -71 c-89 -85
-175 -130 -314 -165 -194 -48 -320 -135 -450 -309 -108 -145 -194 -202 -425
-280 -163 -56 -226 -90 -395 -216 -83 -61 -171 -116 -242 -151 -62 -30 -116
-54 -120 -54 -6 0 -113 207 -141 271 -2 4 34 26 80 49 46 23 150 86 231 141
203 136 267 166 503 238 158 48 245 97 348 197 181 175 268 231 393 254 34 6
142 14 240 19 166 8 184 10 260 40 46 18 85 37 89 42 3 6 9 7 13 4 3 -4 -28
-40 -70 -80z m-4809 45 c0 -5 -2 -10 -4 -10 -3 0 -8 5 -11 10 -3 6 -1 10 4 10
6 0 11 -4 11 -10z m-2230 -494 c0 -11 -19 -15 -25 -6 -3 5 1 10 9 10 9 0 16
-2 16 -4z m105 -26 c-3 -5 -11 -10 -16 -10 -6 0 -7 5 -4 10 3 6 11 10 16 10 6
0 7 -4 4 -10z m45 -20 c8 -5 11 -10 5 -10 -5 0 -17 5 -25 10 -8 5 -10 10 -5
10 6 0 17 -5 25 -10z m65 1 c3 -5 0 -13 -6 -17 -7 -4 -9 -3 -5 4 3 6 -2 13
-11 15 -16 4 -16 5 -1 6 9 0 19 -3 23 -8z m62 -33 c-3 -8 -6 -5 -6 6 -1 11 2
17 5 13 3 -3 4 -12 1 -19z m37 -10 c-3 -4 -9 -8 -15 -8 -5 0 -9 4 -9 8 0 5 7
9 15 9 8 0 12 -4 9 -9z m46 -8 c8 -5 11 -10 5 -10 -5 0 -17 5 -25 10 -8 5 -10
10 -5 10 6 0 17 -5 25 -10z m46 -30 c0 -12 -4 -16 -9 -11 -5 5 -6 14 -3 20 10
15 12 14 12 -9z m34 -14 c0 -3 -4 -8 -10 -11 -5 -3 -10 -1 -10 4 0 6 5 11 10
11 6 0 10 -2 10 -4z m106 -58 c5 -7 3 -8 -6 -3 -10 6 -12 4 -7 -9 4 -10 3 -15
-3 -11 -13 8 -13 35 -1 35 6 0 13 -5 17 -12z m39 -47 c1 -13 -4 -17 -17 -13
-22 5 -24 22 -2 22 9 0 12 5 8 13 -4 6 -3 9 1 4 5 -4 9 -16 10 -26z m32 -43
c-3 -7 -5 -2 -5 12 0 14 2 19 5 13 2 -7 2 -19 0 -25z m43 3 c0 -6 -4 -12 -8
-15 -5 -3 -9 1 -9 9 0 8 4 15 9 15 4 0 8 -4 8 -9z m-1555 -151 c121 -22 285
-51 365 -65 80 -14 251 -44 380 -66 345 -59 727 -126 875 -153 72 -14 191 -34
266 -46 l136 -22 -18 -52 c-37 -108 -58 -185 -80 -298 -23 -123 -26 -127 -71
-108 -13 5 -77 30 -143 55 -112 43 -235 93 -330 135 -22 10 -103 44 -180 75
-77 32 -228 93 -335 137 -107 44 -262 106 -345 138 -82 32 -195 77 -250 100
-55 23 -185 75 -290 115 -104 40 -206 80 -225 89 -34 16 -34 16 -5 10 17 -3
129 -23 250 -44z m8250 21 c-6 -5 -100 -43 -210 -86 -219 -84 -452 -177 -700
-280 -209 -86 -562 -228 -745 -300 -270 -105 -325 -127 -390 -155 -113 -48
-106 -50 -114 27 -3 38 -14 107 -24 156 -19 93 -13 123 7 33 l12 -54 37 10
c20 5 123 36 227 67 105 32 210 64 235 70 25 7 54 16 65 20 11 4 36 13 55 20
19 6 100 33 180 60 80 28 216 72 303 100 175 56 212 72 160 69 -18 -1 -33 -5
-33 -9 0 -4 -8 -5 -17 -3 -10 3 -63 -7 -118 -21 -55 -15 -110 -29 -123 -31
-13 -3 -83 -20 -155 -39 -110 -28 -248 -61 -342 -80 -28 -6 -163 -37 -330 -75
-202 -46 -180 -50 -210 43 -14 43 -24 81 -22 83 5 6 551 105 732 133 370 58
980 157 1085 176 47 8 130 22 185 30 55 9 129 22 165 29 82 17 97 18 85 7z
m-6383 -60 c8 12 9 12 6 0 -2 -8 -11 -15 -20 -17 -12 -1 -15 3 -10 14 4 12 7
13 10 3 4 -11 6 -11 14 0z m49 -21 c10 -6 19 -16 19 -23 0 -8 -3 -9 -8 -1 -4
6 -16 16 -27 22 -25 14 -11 16 16 2z m-1946 -90 c481 -190 967 -385 1015 -405
30 -13 141 -58 245 -101 105 -42 194 -81 199 -86 6 -4 -23 -8 -65 -8 -91 0
-238 -21 -374 -54 -205 -49 -281 -45 -495 27 -121 41 -129 42 -245 41 -125 -1
-153 -8 -350 -77 -38 -14 -85 -28 -102 -32 l-33 -7 0 391 0 391 28 -11 c15 -5
95 -37 177 -69z m2033 45 c-3 -3 -9 2 -12 12 -6 14 -5 15 5 6 7 -7 10 -15 7
-18z m6242 -390 c0 -284 -3 -415 -11 -415 -5 0 -81 27 -168 59 -239 90 -334
113 -466 114 -98 1 -121 -3 -210 -32 -222 -72 -279 -83 -430 -84 -106 -1 -165
5 -245 21 -58 12 -133 24 -168 28 l-63 7 43 19 c75 34 274 116 582 239 165 66
314 126 330 134 26 12 796 323 804 325 1 0 2 -187 2 -415z m-1062 220 c-3 -3
-20 -10 -38 -15 -19 -5 -29 -6 -24 -1 12 12 74 27 62 16z m-173 -55 c-3 -5
-12 -10 -18 -10 -7 0 -6 4 3 10 19 12 23 12 15 0z m-73 -7 c-6 -2 -9 -10 -6
-15 4 -7 2 -8 -5 -4 -13 9 -5 26 12 25 9 0 8 -2 -1 -6z m-539 -178 c-3 -9 -8
-14 -10 -11 -3 3 -2 9 2 15 9 16 15 13 8 -4z m-194 -32 c-7 -7 -15 -11 -18 -7
-3 4 0 9 7 11 10 4 10 8 0 21 -12 15 -11 16 5 3 13 -11 15 -17 6 -28z m35 -19
c3 -8 2 -12 -4 -9 -6 3 -10 10 -10 16 0 14 7 11 14 -7z m-5755 -303 c108 -36
233 -61 300 -61 25 0 134 19 241 41 256 54 413 61 639 30 85 -12 174 -21 198
-21 l45 0 -7 -32 c-9 -40 -9 -259 0 -287 6 -20 3 -21 -48 -21 -76 0 -239 17
-382 41 -160 26 -206 24 -385 -11 -255 -50 -347 -42 -581 48 -205 79 -244 85
-514 77 -201 -6 -229 -5 -323 14 -105 22 -195 51 -225 74 -14 10 9 12 125 13
149 0 255 19 373 66 193 77 371 86 544 29z m7290 19 c43 -11 127 -39 187 -64
228 -92 294 -108 454 -115 141 -6 144 -6 115 -22 -55 -30 -169 -67 -248 -79
-92 -15 -157 -10 -332 25 -280 55 -344 48 -629 -70 -121 -51 -304 -95 -391
-95 -68 0 -196 21 -340 55 -57 14 -97 16 -219 11 -82 -4 -174 -9 -205 -12
l-56 -6 -1 160 -2 160 106 7 c154 11 316 1 492 -31 251 -45 389 -36 630 42 58
18 123 38 145 43 72 16 211 12 294 -9z m-7457 -325 c31 -8 109 -35 172 -60
216 -83 346 -92 611 -40 134 26 207 30 285 16 25 -5 80 -15 123 -22 42 -7 77
-16 77 -21 0 -4 -5 -8 -11 -8 -18 0 -528 -185 -904 -327 -110 -42 -294 -112
-410 -155 -194 -74 -482 -178 -491 -178 -2 0 -4 182 -4 404 l0 403 122 2 c67
1 124 4 127 7 11 11 246 -5 303 -21z m7626 -25 c89 -16 192 -30 231 -30 l71 0
0 -370 0 -369 -92 34 c-51 18 -147 53 -213 78 -205 77 -393 147 -580 214 -208
76 -254 93 -660 243 l-300 110 80 -6 c44 -4 127 -17 185 -31 145 -33 290 -40
410 -19 112 19 165 36 284 88 221 97 323 107 584 58z m-6034 -117 c3 -21 10
-74 16 -118 8 -66 51 -243 76 -317 4 -12 -1 -19 -17 -22 -67 -16 -280 -44
-789 -106 -41 -5 -160 -21 -265 -35 -104 -14 -242 -32 -305 -40 -63 -8 -218
-30 -345 -50 -389 -60 -514 -77 -527 -72 -7 2 7 10 32 16 45 12 280 97 460
167 119 46 394 149 705 264 132 49 344 127 470 174 127 47 282 105 345 130 63
25 120 45 127 46 6 0 14 -17 17 -37z m4661 -136 c110 -41 292 -107 405 -147
113 -40 277 -100 365 -132 88 -33 257 -95 375 -138 305 -110 544 -201 550
-207 3 -3 -13 -3 -35 1 -22 4 -105 16 -185 26 -80 11 -206 29 -280 40 -138 21
-437 59 -680 86 -74 8 -211 25 -305 38 -93 13 -228 32 -300 41 -223 29 -479
65 -482 68 -1 2 9 40 23 85 l25 83 37 -6 c20 -4 80 -14 132 -25 52 -10 183
-35 290 -55 162 -31 305 -63 415 -92 11 -3 54 -11 95 -19 41 -8 109 -21 150
-28 132 -26 156 -28 145 -17 -5 5 -44 19 -85 30 -41 11 -127 36 -190 56 -63
20 -153 48 -200 62 -47 13 -135 40 -196 59 -62 19 -122 37 -134 39 -13 2 -38
9 -56 15 -19 6 -39 8 -45 4 -7 -4 -9 -3 -6 3 5 9 -35 26 -92 38 -46 11 -191
54 -201 60 -7 4 -17 1 -22 -6 -7 -10 -8 -1 -4 26 3 22 8 72 12 111 l7 72 136
-48 c75 -27 226 -82 336 -123z m-505 -114 c-11 -17 -11 -17 -6 0 3 10 7 28 7
40 2 22 2 22 6 0 2 -12 -1 -30 -7 -40z m90 7 c0 -5 -2 -10 -4 -10 -3 0 -8 5
-11 10 -3 6 -1 10 4 10 6 0 11 -4 11 -10z m43 -25 c-3 -9 -8 -14 -10 -11 -3 3
-2 9 2 15 9 16 15 13 8 -4z m156 5 c-6 -5 -18 -6 -26 -3 -19 8 -16 11 13 11
17 0 22 -3 13 -8z m-192 -6 c-3 -3 -12 -4 -19 -1 -8 3 -5 6 6 6 11 1 17 -2 13
-5z m253 -29 c-10 -12 -7 -15 15 -21 14 -3 24 -9 21 -11 -2 -3 -21 1 -40 8
-36 13 -36 13 -14 26 30 16 33 16 18 -2z m-80 1 c0 -2 -13 -9 -30 -15 -35 -12
-41 -5 -7 9 25 10 37 12 37 6z m210 -45 c0 -14 -28 -33 -42 -28 -8 4 -7 6 5 6
9 1 17 8 17 16 0 8 5 15 10 15 6 0 10 -4 10 -9z m119 -32 c-26 -23 -36 -25
-19 -4 6 8 9 18 6 24 -3 5 3 7 14 4 20 -5 20 -6 -1 -24z m156 -49 c3 -5 1 -10
-4 -10 -6 0 -11 5 -11 10 0 6 2 10 4 10 3 0 8 -4 11 -10z m133 -33 c12 -3 10
-5 -5 -6 -18 -1 -23 4 -22 22 1 15 3 17 6 5 2 -9 12 -19 21 -21z m92 -17 c0
-5 -5 -10 -11 -10 -5 0 -7 5 -4 10 3 6 8 10 11 10 2 0 4 -4 4 -10z m-4975
-136 c33 -73 44 -104 27 -77 -6 10 -22 8 -73 -8 -35 -11 -73 -25 -84 -29 -11
-5 -36 -16 -55 -25 -19 -8 -48 -24 -65 -35 -16 -10 -53 -31 -82 -46 -29 -15
-50 -30 -48 -35 3 -4 0 -11 -6 -15 -8 -4 -9 -3 -5 4 10 17 8 16 -112 -24 -173
-59 -240 -99 -412 -249 -85 -75 -154 -140 -152 -146 1 -6 -2 -8 -7 -4 -6 3
-25 -1 -42 -10 -23 -12 -28 -20 -20 -28 6 -6 11 -16 11 -21 0 -6 -6 -3 -13 6
-12 16 -20 14 -102 -19 -49 -19 -123 -42 -165 -51 -96 -20 -107 -29 -28 -25
80 5 246 41 255 55 4 8 0 9 -12 4 -15 -5 -16 -4 -5 9 11 13 14 14 24 0 9 -13
19 -10 71 19 33 19 60 41 60 48 1 7 7 12 14 10 7 -1 39 21 72 49 51 44 58 54
47 68 -11 14 -11 14 4 3 16 -13 38 1 108 67 54 52 163 106 328 162 105 37 203
83 242 114 29 23 110 66 190 100 l80 34 16 -32 c10 -18 24 -42 32 -54 14 -22
12 -24 -69 -62 -46 -21 -136 -67 -199 -103 -117 -66 -278 -136 -360 -158 -117
-31 -232 -101 -370 -223 -88 -79 -175 -130 -264 -153 -28 -8 -126 -23 -217
-34 -91 -11 -201 -29 -245 -40 -94 -24 -221 -83 -287 -133 -26 -20 -47 -35
-47 -32 0 14 60 109 105 165 90 112 183 163 398 220 140 36 233 76 296 127 25
21 105 94 177 163 144 138 208 178 389 245 55 20 152 64 215 98 63 33 156 80
205 104 50 24 101 49 115 57 14 8 26 15 28 15 1 1 18 -33 37 -75z m3927 56
c13 -5 68 -25 123 -45 197 -72 306 -136 464 -274 142 -124 239 -175 412 -215
75 -17 207 -67 259 -98 55 -33 85 -64 193 -198 56 -69 123 -146 150 -173 92
-89 213 -157 282 -157 13 0 27 -4 30 -10 8 -13 -135 -13 -206 0 -84 16 -182
69 -323 173 -175 129 -265 173 -403 199 -323 59 -415 94 -565 211 -153 120
-307 210 -448 262 -19 7 -57 22 -83 34 l-48 21 37 70 c25 49 42 70 55 70 11 0
19 -4 19 -10 0 -5 -7 -7 -16 -3 -11 4 -15 2 -12 -7 2 -7 31 -22 63 -35 160
-60 427 -220 484 -288 9 -11 22 -15 35 -12 15 5 17 4 7 -3 -10 -8 -9 -13 9
-25 12 -9 30 -13 39 -10 12 4 13 3 3 -5 -11 -7 -8 -14 14 -31 33 -26 41 -26
49 0 4 11 9 18 12 16 2 -3 0 -15 -7 -26 -10 -19 -7 -23 32 -40 75 -32 217 -74
288 -86 19 -3 49 -10 67 -14 21 -6 35 -5 44 3 9 8 10 8 5 -1 -5 -9 0 -13 14
-13 11 0 48 -11 81 -25 34 -13 66 -22 72 -18 5 3 7 1 4 -5 -4 -5 16 -27 45
-48 29 -21 59 -44 66 -51 26 -25 21 -12 -14 37 -60 84 -216 160 -394 194 -97
18 -168 41 -250 83 -52 26 -99 47 -103 45 -5 -1 -6 2 -3 7 9 13 -71 74 -85 65
-8 -5 -9 -3 -5 5 5 7 1 18 -7 24 -110 87 -169 127 -179 121 -7 -5 -8 -3 -3 6
6 10 4 12 -8 7 -10 -4 -16 -2 -14 6 2 12 -171 104 -213 112 -24 4 -142 37
-148 40 -1 1 5 19 14 41 9 21 20 49 25 62 10 25 10 25 41 12z m-4362 -82 c-41
-23 -143 -69 -227 -103 -83 -34 -177 -77 -209 -96 -32 -19 -125 -98 -206 -176
-172 -165 -209 -187 -433 -253 -193 -57 -293 -107 -377 -188 -89 -85 -141
-167 -176 -277 -44 -135 -47 -160 -22 -185 20 -20 47 -26 65 -12 6 4 27 29 48
55 40 50 143 125 235 171 74 38 178 62 337 81 309 36 412 77 577 232 96 90
169 133 299 177 151 52 295 111 342 142 20 13 37 22 37 18 0 -3 -51 -58 -113
-122 -62 -65 -142 -148 -178 -187 -36 -38 -135 -144 -220 -235 -202 -216 -511
-549 -674 -730 -71 -79 -175 -193 -230 -254 -144 -158 -194 -215 -204 -234
-18 -35 6 -82 42 -82 28 0 82 33 274 167 90 62 168 111 174 108 5 -4 8 -1 7 6
-2 7 81 69 183 138 102 69 291 201 420 292 311 220 500 353 672 472 78 54 159
111 180 128 20 16 37 26 37 22 0 -4 -43 -54 -95 -111 -184 -201 -226 -271
-311 -521 -61 -177 -90 -225 -193 -319 -218 -196 -276 -269 -334 -414 -44
-109 -60 -193 -60 -323 -1 -200 38 -325 102 -325 46 0 59 20 92 145 76 295
183 440 414 566 209 113 299 215 375 424 37 102 63 156 105 216 46 66 273 304
261 274 -5 -11 -21 -56 -37 -100 -17 -44 -43 -114 -59 -155 -32 -81 -160 -447
-160 -456 0 -3 -25 -74 -56 -157 -31 -84 -63 -171 -71 -194 -9 -24 -19 -40
-24 -37 -5 3 -6 -2 -3 -10 3 -8 -27 -104 -66 -213 -40 -109 -117 -328 -171
-486 -91 -263 -98 -291 -87 -315 20 -41 52 -40 91 3 l33 36 349 -1 c192 0 347
2 344 5 -3 2 -159 5 -347 6 l-341 1 38 56 c21 32 64 101 95 154 44 73 62 95
74 91 13 -4 14 -3 3 5 -10 8 0 30 49 108 123 193 214 341 315 509 56 94 141
231 188 305 299 469 370 580 373 577 2 -2 -7 -42 -21 -88 -46 -153 -48 -167
-50 -449 -2 -306 -2 -310 -77 -469 -65 -138 -75 -163 -92 -238 -21 -96 -20
-187 5 -330 26 -153 39 -227 39 -231 0 -2 -34 -2 -75 0 -41 2 -75 0 -75 -4 0
-5 34 -8 76 -8 l77 0 -7 -52 c-4 -34 -26 -93 -62 -166 -31 -62 -53 -119 -50
-127 3 -9 16 -20 30 -26 54 -25 220 108 282 226 48 91 62 149 69 280 13 267
30 317 179 529 41 60 68 112 91 180 18 52 34 94 36 92 2 -3 5 10 5 27 1 18 9
127 17 242 17 218 32 296 85 439 l29 80 6 -45 c4 -24 9 -64 12 -89 3 -25 14
-119 25 -210 10 -91 29 -259 40 -375 12 -115 27 -259 35 -320 7 -60 16 -139
20 -175 4 -36 8 -78 10 -95 5 -46 14 -130 25 -245 6 -58 13 -117 16 -132 l5
-27 -312 -1 c-172 0 -315 -2 -317 -5 -3 -3 137 -5 311 -5 l316 0 5 -42 c4 -24
20 -151 36 -283 31 -246 40 -289 67 -300 25 -9 53 4 58 28 12 56 27 170 50
382 13 127 33 304 44 395 19 154 61 536 97 885 8 83 21 200 29 260 8 61 21
182 31 270 9 88 17 161 19 163 10 11 75 -285 75 -340 0 -78 60 -297 108 -393
13 -27 60 -102 103 -167 124 -185 125 -186 121 -418 -3 -263 17 -357 104 -481
55 -79 91 -116 167 -170 83 -58 127 -75 157 -59 29 15 25 44 -15 109 -60 96
-77 154 -82 276 -5 109 -2 139 43 345 7 36 17 117 20 180 10 177 -17 270 -140
485 -26 44 -55 103 -66 132 -30 80 -49 216 -51 357 -1 71 -5 143 -10 159 -12
43 -3 46 14 6 8 -19 40 -72 71 -119 31 -47 54 -91 51 -98 -3 -7 -1 -10 4 -7 8
4 79 -104 169 -257 12 -21 55 -91 96 -156 98 -157 224 -360 391 -632 75 -124
169 -274 208 -335 89 -141 97 -153 97 -160 0 -2 -197 -6 -437 -8 l-438 -2 445
-3 445 -2 28 -40 c34 -49 80 -56 98 -16 9 19 2 50 -44 182 -30 88 -58 170 -62
184 -11 37 -78 231 -157 450 -88 244 -159 443 -208 585 -35 103 -117 329 -196
541 -18 51 -49 134 -68 185 -18 52 -37 103 -41 114 -9 22 53 -46 98 -108 27
-37 98 -155 125 -207 39 -77 123 -169 234 -257 270 -215 312 -269 404 -515 68
-183 105 -247 190 -328 97 -92 179 -133 325 -164 111 -23 219 4 219 55 0 18
-41 53 -90 78 -69 34 -159 114 -205 182 -59 89 -85 169 -120 374 -28 168 -75
312 -119 370 -33 42 -83 92 -152 150 -169 143 -198 180 -314 395 -39 74 -85
152 -101 172 -16 20 -29 39 -29 42 0 6 89 -56 683 -477 55 -39 94 -73 90 -79
-3 -7 -1 -8 5 -4 6 3 48 -21 94 -54 46 -33 146 -105 223 -159 77 -53 196 -138
265 -186 113 -81 271 -190 405 -280 68 -46 94 -51 128 -25 33 26 34 42 5 83
-51 73 -348 403 -578 642 -267 278 -969 1041 -1010 1097 -14 21 -14 21 20 3
47 -24 188 -120 280 -189 126 -95 263 -151 451 -181 222 -37 285 -64 467 -203
217 -165 316 -204 512 -204 156 0 270 41 270 97 0 39 -22 54 -95 65 -99 14
-133 25 -198 64 -95 58 -144 104 -246 235 -54 69 -127 153 -162 185 -79 73
-197 131 -359 176 -233 65 -252 76 -453 250 -41 36 -104 83 -141 104 -36 21
-65 40 -64 41 2 2 48 -3 103 -10 424 -57 664 -88 875 -114 135 -17 353 -47
485 -67 283 -42 364 -53 388 -54 16 0 17 -136 15 -2799 l-3 -2798 -40 -79
c-32 -63 -53 -90 -109 -136 -38 -32 -94 -68 -125 -80 l-56 -23 -3875 -3
c-2904 -2 -3889 0 -3930 9 -127 26 -244 122 -304 249 l-31 65 -3 2797 -2 2796
52 7 c29 4 109 16 178 26 69 11 172 26 230 34 58 8 197 28 310 44 113 16 297
41 410 56 180 22 441 56 640 84 129 17 133 15 50 -31z m4356 -74 c18 -14 18
-14 -6 -3 -31 14 -36 19 -24 19 6 0 19 -7 30 -16z m49 -32 c-3 -3 -11 0 -18 7
-9 10 -8 11 6 5 10 -3 15 -9 12 -12z m-4080 -2 c3 -5 1 -10 -4 -10 -6 0 -11 5
-11 10 0 6 2 10 4 10 3 0 8 -4 11 -10z m-25 -14 c0 -2 -7 -6 -15 -10 -8 -3
-15 -1 -15 4 0 6 7 10 15 10 8 0 15 -2 15 -4z m-56 -21 c-4 -8 -10 -12 -15 -9
-11 6 -2 24 11 24 5 0 7 -7 4 -15z m407 -215 c35 -52 93 -126 129 -165 35 -38
75 -82 88 -96 l23 -26 -133 -95 c-325 -230 -787 -554 -1208 -846 -276 -191
-471 -329 -548 -387 -37 -28 -74 -55 -82 -60 -17 -10 117 139 251 280 47 49
170 185 274 300 104 116 214 237 245 270 31 33 133 141 225 240 93 99 199 212
235 250 37 39 102 108 145 155 150 163 279 290 285 283 4 -5 36 -51 71 -103z
m3731 -106 c40 -43 120 -132 177 -197 57 -65 147 -165 200 -221 53 -56 170
-183 261 -281 91 -99 213 -229 271 -290 123 -128 310 -332 423 -460 127 -144
127 -143 71 -102 -27 20 -110 78 -183 129 -73 51 -240 169 -370 262 -130 93
-311 220 -401 283 -90 63 -207 147 -261 187 -53 39 -162 116 -241 172 -79 55
-219 154 -311 219 l-167 118 74 81 c79 86 162 195 208 271 l27 47 74 -69 c41
-38 107 -105 148 -149z m-4392 196 c0 -5 -5 -10 -11 -10 -5 0 -7 5 -4 10 3 6
8 10 11 10 2 0 4 -4 4 -10z m-155 -50 c3 -5 1 -10 -4 -10 -6 0 -11 5 -11 10 0
6 2 10 4 10 3 0 8 -4 11 -10z m4985 -11 c0 -6 -4 -7 -10 -4 -5 3 -10 11 -10
16 0 6 5 7 10 4 6 -3 10 -11 10 -16z m-4980 -19 c-20 -13 -33 -13 -25 0 3 6
14 10 23 10 15 0 15 -2 2 -10z m-141 -47 c-12 -15 -12 -16 6 -9 15 5 17 4 8
-5 -17 -17 -37 -1 -22 17 6 8 14 14 16 14 3 0 -1 -8 -8 -17z m5198 -25 c-3 -8
-6 -5 -6 6 -1 11 2 17 5 13 3 -3 4 -12 1 -19z m-5256 -41 c-10 -9 -11 -8 -5 6
3 10 9 15 12 12 3 -3 0 -11 -7 -18z m5409 -27 c8 -5 11 -10 5 -10 -5 0 -17 5
-25 10 -8 5 -10 10 -5 10 6 0 17 -5 25 -10z m54 -42 c-4 -6 2 -8 17 -3 19 5
21 4 9 -4 -22 -15 -26 -14 -45 15 -16 25 -16 25 5 14 11 -6 18 -16 14 -22z
m81 -17 c3 -5 2 -12 -3 -15 -5 -3 -9 1 -9 9 0 17 3 19 12 6z m45 -16 c0 -12
-19 -12 -23 0 -4 9 -1 12 9 8 7 -3 14 -7 14 -8z m85 -14 c3 -5 2 -12 -3 -15
-5 -3 -9 1 -9 9 0 17 3 19 12 6z m-5865 -20 c0 -13 -31 -43 -38 -36 -3 3 3 14
14 24 22 23 24 24 24 12z m6075 -41 c3 -6 -1 -7 -9 -4 -18 7 -21 14 -7 14 6 0
13 -4 16 -10z m-4534 -103 c25 -23 43 -41 41 -40 -3 1 -36 -48 -73 -109 -80
-127 -119 -179 -224 -290 -41 -44 -72 -85 -68 -91 3 -5 1 -7 -5 -3 -14 8 -84
-75 -121 -144 -16 -30 -50 -109 -76 -175 -95 -242 -156 -331 -309 -455 -59
-48 -78 -78 -23 -36 19 15 37 26 42 26 9 0 130 85 169 120 55 49 195 323 182
357 -3 8 -2 12 2 9 5 -3 23 27 40 67 28 61 30 72 17 80 -8 4 -15 13 -15 18 0
6 8 3 17 -6 16 -16 18 -16 36 6 21 26 88 100 176 194 61 65 158 185 182 225
21 35 58 130 65 165 3 16 6 31 8 32 2 3 116 -77 116 -82 0 -1 -14 -36 -31 -76
-53 -124 -130 -231 -273 -377 -198 -203 -224 -239 -292 -417 -42 -111 -79
-180 -129 -237 -41 -49 -163 -142 -229 -175 -135 -69 -220 -141 -294 -251 -57
-86 -72 -118 -128 -277 l-29 -80 -9 65 c-19 136 27 336 109 470 60 99 108 153
199 224 149 117 231 239 281 421 49 176 122 303 271 469 137 153 169 193 246
309 39 59 74 107 77 107 3 0 27 -19 52 -43z m3024 -199 c73 -96 147 -215 218
-351 73 -138 145 -222 315 -367 148 -126 192 -224 232 -515 35 -247 129 -417
284 -513 19 -11 16 -12 -19 -6 -69 10 -184 74 -250 139 -68 67 -97 120 -173
320 -27 72 -67 159 -87 194 -48 82 -152 186 -285 286 -181 137 -211 171 -330
380 -71 124 -133 205 -256 334 -90 95 -128 140 -123 145 2 2 35 25 73 50 38
26 94 70 125 97 l55 49 74 -72 c40 -40 107 -117 147 -170z m-2712 -16 c102
-69 160 -97 332 -159 39 -13 72 -27 74 -29 3 -2 -5 -14 -16 -27 -29 -32 -151
-224 -349 -547 -96 -157 -210 -339 -253 -405 -67 -101 -304 -483 -395 -635
-15 -25 -50 -81 -78 -125 -28 -44 -72 -118 -99 -165 -27 -46 -49 -81 -49 -77
0 12 143 421 262 747 61 168 126 351 144 407 63 192 374 1043 381 1043 3 0 23
-13 46 -28z m2197 -28 c26 -59 197 -524 275 -749 57 -165 131 -370 170 -475
26 -69 101 -278 166 -465 66 -187 131 -368 144 -403 35 -87 31 -89 -13 -7 -20
39 -49 86 -63 105 -27 35 -104 160 -358 580 -75 124 -154 252 -176 285 -21 33
-68 110 -105 170 -164 269 -305 492 -399 632 -55 83 -101 156 -101 161 0 6 19
17 43 25 134 49 183 71 282 126 60 34 111 61 112 61 1 0 11 -21 23 -46z
m-2530 22 c0 -3 -4 -8 -10 -11 -5 -3 -10 -1 -10 4 0 6 5 11 10 11 6 0 10 -2
10 -4z m-20 -46 c0 -5 -5 -10 -11 -10 -5 0 -7 5 -4 10 3 6 8 10 11 10 2 0 4
-4 4 -10z m-115 -109 c3 -5 2 -12 -3 -15 -5 -3 -9 1 -9 9 0 17 3 19 12 6z
m-40 -51 c3 -6 -1 -7 -9 -4 -18 7 -21 14 -7 14 6 0 13 -4 16 -10z m1061 -14
c27 -7 78 -19 114 -26 94 -17 91 -16 80 -45 -5 -14 -16 -81 -24 -148 -8 -74
-24 -152 -39 -193 -14 -38 -41 -112 -61 -165 -49 -136 -65 -227 -75 -439 -8
-152 -14 -199 -34 -265 -38 -122 -53 -152 -128 -256 -123 -171 -152 -258 -169
-509 -6 -80 -17 -168 -25 -195 -12 -44 -87 -175 -99 -175 -2 0 5 28 17 63 27
82 29 272 3 362 -24 80 -33 289 -16 352 7 27 41 109 75 183 93 199 100 246 95
610 -2 171 5 207 90 465 32 99 68 217 79 262 38 147 33 143 117 119z m1119
-38 c10 -29 41 -114 71 -188 78 -199 85 -231 94 -435 9 -219 26 -295 90 -417
117 -220 139 -273 156 -361 21 -105 12 -195 -35 -380 -52 -201 -49 -349 9
-468 l21 -44 -51 55 c-57 61 -113 168 -131 248 -6 29 -12 148 -12 265 -2 253
-5 262 -128 447 -155 236 -165 267 -230 705 -5 39 -33 138 -60 220 -48 141
-78 266 -79 327 0 24 4 27 48 33 26 4 81 15 122 25 41 10 80 18 87 19 6 1 19
-23 28 -51z m-339 -25 c-3 -10 -14 -108 -26 -218 -12 -110 -32 -290 -45 -400
-14 -110 -36 -310 -50 -445 -14 -135 -27 -256 -30 -270 -5 -24 -47 -423 -80
-760 -9 -85 -19 -191 -24 -235 -4 -44 -10 -73 -13 -65 -3 8 -18 139 -32 290
-15 151 -38 370 -51 485 -72 635 -175 1586 -175 1621 0 1 78 0 173 -3 94 -2
206 0 247 5 113 14 112 14 106 -5z m-2151 -403 c3 -5 -1 -10 -10 -10 -9 0 -13
5 -10 10 3 6 8 10 10 10 2 0 7 -4 10 -10z m-71 -149 c3 -5 -1 -11 -9 -14 -9
-4 -12 -1 -8 9 6 16 10 17 17 5z m-24 -41 c0 -5 -5 -10 -11 -10 -5 0 -7 5 -4
10 3 6 8 10 11 10 2 0 4 -4 4 -10z"/>
<path d="M1088 10871 c12 -7 62 -4 62 5 0 2 -17 4 -37 4 -24 0 -33 -3 -25 -9z"/>
<path d="M1162 10874 c7 -6 360 -6 366 1 3 3 -79 5 -183 5 -104 0 -186 -3
-183 -6z"/>
<path d="M1913 10873 c15 -2 37 -2 50 0 12 2 0 4 -28 4 -27 0 -38 -2 -22 -4z"/>
<path d="M2078 10873 c50 -2 134 -2 185 0 50 1 9 3 -93 3 -102 0 -143 -2 -92
-3z"/>
<path d="M4138 10873 c12 -2 32 -2 45 0 12 2 2 4 -23 4 -25 0 -35 -2 -22 -4z"/>
<path d="M4723 10873 c9 -2 25 -2 35 0 9 3 1 5 -18 5 -19 0 -27 -2 -17 -5z"/>
<path d="M4788 10873 c7 -3 16 -2 19 1 4 3 -2 6 -13 5 -11 0 -14 -3 -6 -6z"/>
<path d="M6067 10873 c18 -2 50 -2 70 0 21 2 7 4 -32 4 -38 0 -55 -2 -38 -4z"/>
<path d="M6788 10873 c34 -2 88 -2 120 0 31 2 3 3 -63 3 -66 0 -92 -1 -57 -3z"/>
<path d="M7773 10873 c43 -2 110 -2 150 0 40 1 5 3 -78 3 -82 0 -115 -2 -72
-3z"/>
<path d="M8048 10873 c29 -2 74 -2 100 0 26 2 2 3 -53 3 -55 0 -76 -1 -47 -3z"/>
<path d="M8238 10873 c23 -2 59 -2 80 0 20 2 1 4 -43 4 -44 0 -61 -2 -37 -4z"/>
<path d="M8853 10873 c65 -2 168 -2 230 0 62 1 9 3 -118 3 -126 0 -177 -2
-112 -3z"/>
<path d="M8125 10850 c3 -5 8 -10 11 -10 2 0 4 5 4 10 0 6 -5 10 -11 10 -5 0
-7 -4 -4 -10z"/>
<path d="M1196 10841 c-3 -5 1 -11 9 -14 9 -4 12 -1 8 9 -6 16 -10 17 -17 5z"/>
<path d="M8731 10774 c0 -11 3 -14 6 -6 3 7 2 16 -1 19 -3 4 -6 -2 -5 -13z"/>
<path d="M8689 10753 c-13 -16 -12 -17 4 -4 16 13 21 21 13 21 -2 0 -10 -8
-17 -17z"/>
<path d="M3507 10719 c7 -7 15 -10 18 -7 3 3 -2 9 -12 12 -14 6 -15 5 -6 -5z"/>
<path d="M8607 10719 c7 -7 15 -10 18 -7 3 3 -2 9 -12 12 -14 6 -15 5 -6 -5z"/>
<path d="M1208 10683 c7 -3 16 -2 19 1 4 3 -2 6 -13 5 -11 0 -14 -3 -6 -6z"/>
<path d="M1486 10677 c3 -10 9 -15 12 -12 3 3 0 11 -7 18 -10 9 -11 8 -5 -6z"/>
<path d="M7560 10619 c0 -5 5 -7 10 -4 6 3 10 8 10 11 0 2 -4 4 -10 4 -5 0
-10 -5 -10 -11z"/>
<path d="M8550 10611 c0 -6 4 -13 10 -16 6 -3 7 1 4 9 -7 18 -14 21 -14 7z"/>
<path d="M7828 10603 c7 -3 16 -2 19 1 4 3 -2 6 -13 5 -11 0 -14 -3 -6 -6z"/>
<path d="M2340 10590 c-9 -6 -10 -10 -3 -10 6 0 15 5 18 10 8 12 4 12 -15 0z"/>
<path d="M8440 10580 c0 -5 5 -10 11 -10 5 0 7 5 4 10 -3 6 -8 10 -11 10 -2 0
-4 -4 -4 -10z"/>
<path d="M3540 10565 c0 -8 4 -15 10 -15 5 0 7 7 4 15 -4 8 -8 15 -10 15 -2 0
-4 -7 -4 -15z"/>
<path d="M3590 10561 c0 -6 4 -13 10 -16 6 -3 7 1 4 9 -7 18 -14 21 -14 7z"/>
<path d="M7700 10566 c0 -3 9 -10 20 -16 11 -6 20 -8 20 -6 0 3 -9 10 -20 16
-11 6 -20 8 -20 6z"/>
<path d="M8425 10489 c-4 -6 -5 -12 -2 -15 2 -3 7 2 10 11 7 17 1 20 -8 4z"/>
<path d="M2665 10480 c-3 -6 1 -7 9 -4 18 7 21 14 7 14 -6 0 -13 -4 -16 -10z"/>
<path d="M1279 10453 c-13 -16 -12 -17 4 -4 16 13 21 21 13 21 -2 0 -10 -8
-17 -17z"/>
<path d="M9165 10380 c-3 -6 1 -7 9 -4 18 7 21 14 7 14 -6 0 -13 -4 -16 -10z"/>
<path d="M1411 10364 c0 -11 3 -14 6 -6 3 7 2 16 -1 19 -3 4 -6 -2 -5 -13z"/>
<path d="M1380 10360 c0 -5 5 -10 11 -10 5 0 7 5 4 10 -3 6 -8 10 -11 10 -2 0
-4 -4 -4 -10z"/>
<path d="M6558 10313 c7 -3 16 -2 19 1 4 3 -2 6 -13 5 -11 0 -14 -3 -6 -6z"/>
<path d="M7350 10311 c0 -6 4 -13 10 -16 6 -3 7 1 4 9 -7 18 -14 21 -14 7z"/>
<path d="M2800 10300 c0 -5 5 -10 11 -10 5 0 7 5 4 10 -3 6 -8 10 -11 10 -2 0
-4 -4 -4 -10z"/>
<path d="M8416 10228 c3 -5 10 -6 15 -3 13 9 11 12 -6 12 -8 0 -12 -4 -9 -9z"/>
<path d="M8895 10230 c-16 -7 -17 -9 -3 -9 9 -1 20 4 23 9 7 11 7 11 -20 0z"/>
<path d="M1150 10211 c0 -10 19 -25 25 -20 1 2 -3 10 -11 17 -8 7 -14 8 -14 3z"/>
<path d="M1405 10210 c3 -5 8 -10 11 -10 2 0 4 5 4 10 0 6 -5 10 -11 10 -5 0
-7 -4 -4 -10z"/>
<path d="M8690 10150 c0 -5 5 -10 11 -10 5 0 7 5 4 10 -3 6 -8 10 -11 10 -2 0
-4 -4 -4 -10z"/>
<path d="M8235 10140 c3 -5 8 -10 11 -10 2 0 4 5 4 10 0 6 -5 10 -11 10 -5 0
-7 -4 -4 -10z"/>
<path d="M1835 10130 c-3 -6 1 -7 9 -4 18 7 21 14 7 14 -6 0 -13 -4 -16 -10z"/>
<path d="M3078 10093 c7 -3 16 -2 19 1 4 3 -2 6 -13 5 -11 0 -14 -3 -6 -6z"/>
<path d="M8495 10090 c-3 -6 1 -7 9 -4 18 7 21 14 7 14 -6 0 -13 -4 -16 -10z"/>
<path d="M1877 10059 c7 -7 15 -10 18 -7 3 3 -2 9 -12 12 -14 6 -15 5 -6 -5z"/>
<path d="M2045 10010 c-3 -6 1 -7 9 -4 18 7 21 14 7 14 -6 0 -13 -4 -16 -10z"/>
<path d="M1176 9917 c3 -10 9 -15 12 -12 3 3 0 11 -7 18 -10 9 -11 8 -5 -6z"/>
<path d="M2348 9923 c7 -3 16 -2 19 1 4 3 -2 6 -13 5 -11 0 -14 -3 -6 -6z"/>
<path d="M2420 9890 c0 -5 5 -10 11 -10 5 0 7 5 4 10 -3 6 -8 10 -11 10 -2 0
-4 -4 -4 -10z"/>
<path d="M1305 9829 c-4 -6 -5 -12 -2 -15 2 -3 7 2 10 11 7 17 1 20 -8 4z"/>
<path d="M2315 9790 c-3 -5 -1 -10 4 -10 6 0 11 5 11 10 0 6 -2 10 -4 10 -3 0
-8 -4 -11 -10z"/>
<path d="M1305 9780 c3 -5 8 -10 11 -10 2 0 4 5 4 10 0 6 -5 10 -11 10 -5 0
-7 -4 -4 -10z"/>
<path d="M9175 9780 c-3 -5 -1 -10 4 -10 6 0 11 5 11 10 0 6 -2 10 -4 10 -3 0
-8 -4 -11 -10z"/>
<path d="M7875 9710 c-3 -5 -1 -10 4 -10 6 0 11 5 11 10 0 6 -2 10 -4 10 -3 0
-8 -4 -11 -10z"/>
<path d="M9150 9710 c-9 -6 -10 -10 -3 -10 6 0 15 5 18 10 8 12 4 12 -15 0z"/>
<path d="M1426 9697 c3 -10 9 -15 12 -12 3 3 0 11 -7 18 -10 9 -11 8 -5 -6z"/>
<path d="M1243 9681 c0 -11 5 -18 9 -15 4 3 5 11 1 19 -7 21 -12 19 -10 -4z"/>
<path d="M2660 9686 c0 -4 7 -14 15 -22 8 -9 15 -11 15 -6 0 5 -7 15 -15 22
-8 7 -15 9 -15 6z"/>
<path d="M7610 9651 c0 -6 4 -13 10 -16 6 -3 7 1 4 9 -7 18 -14 21 -14 7z"/>
<path d="M1410 9640 c-9 -6 -10 -10 -3 -10 6 0 15 5 18 10 8 12 4 12 -15 0z"/>
<path d="M1056 9613 c-6 -14 -5 -15 5 -6 7 7 10 15 7 18 -3 3 -9 -2 -12 -12z"/>
<path d="M2665 9589 c-4 -6 -5 -12 -2 -15 2 -3 7 2 10 11 7 17 1 20 -8 4z"/>
<path d="M2705 9580 c3 -5 8 -10 11 -10 2 0 4 5 4 10 0 6 -5 10 -11 10 -5 0
-7 -4 -4 -10z"/>
<path d="M8957 9459 c7 -7 15 -10 18 -7 3 3 -2 9 -12 12 -14 6 -15 5 -6 -5z"/>
<path d="M9181 9454 c0 -11 3 -14 6 -6 3 7 2 16 -1 19 -3 4 -6 -2 -5 -13z"/>
<path d="M1390 9391 c0 -6 4 -13 10 -16 6 -3 7 1 4 9 -7 18 -14 21 -14 7z"/>
<path d="M8400 9380 c-9 -6 -10 -10 -3 -10 6 0 15 5 18 10 8 12 4 12 -15 0z"/>
<path d="M8465 9369 c-4 -6 -5 -12 -2 -15 2 -3 7 2 10 11 7 17 1 20 -8 4z"/>
<path d="M8510 9358 c0 -4 4 -8 9 -8 6 0 12 4 15 8 3 5 -1 9 -9 9 -8 0 -15 -4
-15 -9z"/>
<path d="M1600 9340 c0 -5 5 -10 11 -10 5 0 7 5 4 10 -3 6 -8 10 -11 10 -2 0
-4 -4 -4 -10z"/>
<path d="M1777 9309 c7 -7 15 -10 18 -7 3 3 -2 9 -12 12 -14 6 -15 5 -6 -5z"/>
<path d="M1465 9270 c-3 -6 1 -7 9 -4 18 7 21 14 7 14 -6 0 -13 -4 -16 -10z"/>
<path d="M8810 9250 c-9 -6 -10 -10 -3 -10 6 0 15 5 18 10 8 12 4 12 -15 0z"/>
<path d="M1536 9235 c4 -8 11 -15 16 -15 6 0 5 6 -2 15 -7 8 -14 15 -16 15 -2
0 -1 -7 2 -15z"/>
<path d="M2166 9077 c3 -10 9 -15 12 -12 3 3 0 11 -7 18 -10 9 -11 8 -5 -6z"/>
<path d="M2055 9050 c-3 -5 -1 -10 4 -10 6 0 11 5 11 10 0 6 -2 10 -4 10 -3 0
-8 -4 -11 -10z"/>
<path d="M6058 11898 c-1 -57 -2 -119 -2 -140 -1 -20 -4 -34 -8 -31 -5 2 -8
-3 -8 -12 0 -21 -74 -167 -122 -239 -59 -89 -101 -174 -94 -192 3 -8 2 -12 -4
-9 -22 14 -52 -131 -66 -327 -18 -248 -32 -305 -126 -508 -19 -41 -41 -109
-48 -150 -6 -41 -14 -81 -16 -87 -2 -7 2 -13 8 -13 7 0 6 -5 -2 -15 -8 -10 -9
-15 -2 -15 6 0 9 -7 6 -15 -4 -8 -2 -15 2 -15 5 0 22 39 37 88 16 48 31 92 33
98 3 6 -6 16 -18 22 -23 11 -23 11 2 6 24 -5 28 1 58 68 27 61 31 78 23 105
-7 25 -6 31 4 27 7 -3 11 -14 8 -25 -3 -10 -3 -19 0 -19 3 0 19 38 35 83 37
101 51 196 58 382 4 88 13 166 24 211 20 76 82 218 100 229 7 4 9 19 6 34 -3
14 -3 20 0 14 11 -26 23 -11 73 90 61 124 81 200 81 306 0 73 -18 151 -34 151
-4 0 -7 -46 -8 -102z m26 26 c3 -8 2 -12 -4 -9 -6 3 -10 10 -10 16 0 14 7 11
14 -7z m6 -158 c0 -3 -4 -8 -10 -11 -5 -3 -10 -1 -10 4 0 6 5 11 10 11 6 0 10
-2 10 -4z m-30 -106 c0 -5 -5 -10 -11 -10 -5 0 -7 5 -4 10 3 6 8 10 11 10 2 0
4 -4 4 -10z m-20 -30 c0 -5 -5 -10 -11 -10 -5 0 -7 5 -4 10 3 6 8 10 11 10 2
0 4 -4 4 -10z m-39 -53 c-10 -9 -11 -8 -5 6 3 10 9 15 12 12 3 -3 0 -11 -7
-18z m-86 -157 c-3 -5 -12 -10 -18 -10 -7 0 -6 4 3 10 19 12 23 12 15 0z m-55
-144 c0 -3 -4 -8 -10 -11 -5 -3 -10 -1 -10 4 0 6 5 11 10 11 6 0 10 -2 10 -4z
m-31 -93 c0 -11 -3 -13 -6 -5 -2 6 -9 10 -14 6 -5 -3 -9 0 -9 5 0 6 7 11 15
11 8 0 15 -8 14 -17z m-30 -356 c-2 -1 -13 -9 -24 -17 -19 -14 -19 -14 -6 3 7
9 18 17 24 17 6 0 8 -1 6 -3z m-39 -137 c0 -5 -5 -10 -11 -10 -5 0 -7 5 -4 10
3 6 8 10 11 10 2 0 4 -4 4 -10z m7 -27 c-11 -12 -16 -12 -22 -2 -6 8 -4 10 4
5 8 -5 14 0 18 15 4 14 8 18 11 10 2 -7 -2 -20 -11 -28z m-80 -155 c-3 -8 -6
-5 -6 6 -1 11 2 17 5 13 3 -3 4 -12 1 -19z m-32 -108 c3 -5 1 -10 -4 -10 -6 0
-11 5 -11 10 0 6 2 10 4 10 3 0 8 -4 11 -10z"/>
<path d="M6586 11127 c-94 -146 -186 -299 -249 -417 -22 -41 -43 -79 -47 -85
-4 -5 -50 -93 -101 -195 -51 -102 -119 -229 -151 -284 -81 -137 -81 -136 -13
-169 54 -26 75 -28 75 -5 0 12 9 33 148 348 95 213 117 263 198 438 19 40 34
74 34 76 0 6 118 257 136 289 17 31 35 87 28 87 -2 0 -29 -37 -58 -83z m-72
-173 c3 -8 2 -12 -4 -9 -6 3 -10 10 -10 16 0 14 7 11 14 -7z m-30 -43 c3 -5
-1 -11 -9 -14 -9 -4 -12 -1 -8 9 6 16 10 17 17 5z m-13 -54 c-10 -9 -11 -8 -5
6 3 10 9 15 12 12 3 -3 0 -11 -7 -18z m-20 -50 c-10 -9 -11 -8 -5 6 3 10 9 15
12 12 3 -3 0 -11 -7 -18z m-54 -59 c-3 -8 -6 -5 -6 6 -1 11 2 17 5 13 3 -3 4
-12 1 -19z m3 -36 c0 -5 -7 -9 -15 -9 -8 0 -12 4 -9 9 3 4 9 8 15 8 5 0 9 -4
9 -8z m-109 -135 c-10 -9 -11 -8 -5 6 3 10 9 15 12 12 3 -3 0 -11 -7 -18z
m-24 -159 c-3 -8 -6 -5 -6 6 -1 11 2 17 5 13 3 -3 4 -12 1 -19z m-60 -84 c-3
-3 -12 -4 -19 -1 -8 3 -5 6 6 6 11 1 17 -2 13 -5z m3 -55 c0 -5 -4 -9 -8 -9
-5 0 -9 7 -9 15 0 8 4 12 9 9 4 -3 8 -9 8 -15z m-95 -69 c-3 -5 -12 -10 -18
-10 -7 0 -6 4 3 10 19 12 23 12 15 0z m15 -38 c0 -4 -9 -8 -19 -8 -11 0 -17 4
-15 8 3 4 12 8 20 8 8 0 14 -4 14 -8z m-43 -84 c-3 -8 -6 -5 -6 6 -1 11 2 17
5 13 3 -3 4 -12 1 -19z m-47 -18 c0 -5 -8 -10 -17 -10 -15 0 -16 2 -3 10 19
12 20 12 20 0z m65 -30 c-3 -5 -12 -10 -18 -10 -7 0 -6 4 3 10 19 12 23 12 15
0z"/>
<path d="M2625 11235 c9 -64 47 -185 56 -179 5 3 6 -1 3 -9 -8 -21 58 -126
108 -173 24 -22 84 -66 134 -98 144 -89 186 -137 274 -311 95 -188 124 -228
320 -431 155 -160 250 -272 250 -293 0 -5 5 -13 12 -17 8 -5 9 -2 4 11 -6 16
-4 16 10 4 15 -12 16 -11 9 11 -7 24 -7 25 9 5 17 -20 17 -20 10 4 -18 66
-149 240 -175 233 -6 -1 -8 2 -5 7 4 5 -15 29 -40 53 -92 85 -150 144 -211
215 -35 41 -64 67 -67 60 -2 -7 -4 -3 -3 8 1 11 -31 83 -70 161 -99 195 -135
233 -327 344 -24 14 -64 42 -89 62 -25 21 -47 35 -50 30 -2 -4 -3 -2 -1 4 1 6
-17 38 -39 71 -42 59 -66 108 -106 213 -20 52 -21 53 -16 15z m415 -482 c0 -3
-7 -3 -15 1 -8 3 -15 0 -15 -6 0 -6 -3 -9 -6 -5 -11 10 6 26 21 20 8 -3 15 -7
15 -10z m25 -23 c-3 -5 -12 -10 -18 -10 -7 0 -6 4 3 10 19 12 23 12 15 0z m28
-40 c-3 -11 -9 -17 -15 -14 -5 3 -4 12 3 20 16 19 18 18 12 -6z m69 -69 c8 11
9 11 5 -1 -2 -8 -7 -15 -12 -15 -5 0 -10 7 -12 15 -2 11 -1 11 3 1 5 -11 8
-11 16 0z m273 -421 c3 -6 -1 -7 -9 -4 -18 7 -21 14 -7 14 6 0 13 -4 16 -10z
m65 -85 c-7 -8 -17 -15 -23 -15 -6 0 -2 7 9 15 25 19 30 19 14 0z m55 -45 c3
-5 -1 -10 -9 -10 -9 0 -16 5 -16 10 0 6 4 10 9 10 6 0 13 -4 16 -10z m177
-212 c-8 -8 -9 -4 -5 13 4 13 8 18 11 10 2 -7 -1 -18 -6 -23z"/>
<path d="M7594 11248 c-21 -69 -97 -211 -141 -264 -51 -61 -101 -101 -243
-193 -88 -57 -159 -124 -197 -184 -14 -23 -46 -90 -69 -148 -56 -141 -73 -172
-132 -248 -29 -37 -48 -71 -45 -80 4 -12 2 -13 -4 -3 -7 9 -44 -23 -136 -115
-127 -130 -169 -180 -200 -242 -14 -27 -15 -36 -5 -43 18 -11 28 -10 28 4 0 6
3 8 6 5 4 -4 19 13 34 36 14 23 60 71 100 107 67 59 111 103 194 194 90 98
173 227 160 247 -4 7 -3 9 4 5 6 -3 17 13 28 41 41 114 65 168 94 214 17 28
28 54 25 60 -4 5 -2 8 3 7 6 -2 35 18 65 44 30 26 86 67 124 90 120 74 177
123 166 142 -4 5 -1 6 4 3 6 -4 17 0 24 9 10 13 10 17 -2 25 -11 8 -10 9 5 7
13 -2 26 8 39 30 20 34 79 192 72 192 -2 0 2 18 10 40 8 22 10 40 5 40 -5 0
-12 -10 -16 -22z m-51 -173 c-3 -9 -8 -14 -10 -11 -3 3 -2 9 2 15 9 16 15 13
8 -4z m-15 -45 c-7 -10 -14 -17 -17 -15 -4 4 18 35 25 35 2 0 -1 -9 -8 -20z
m-311 -272 c-3 -8 -6 -5 -6 6 -1 11 2 17 5 13 3 -3 4 -12 1 -19z m-150 -135
c1 -24 1 -25 -7 -8 -11 26 -12 35 -2 35 4 0 8 -12 9 -27z m-54 -120 c-3 -7 -6
-13 -8 -13 -2 0 -5 6 -8 13 -3 8 1 14 8 14 7 0 11 -6 8 -14z m-123 -273 c0 -5
-5 -10 -11 -10 -5 0 -7 5 -4 10 3 6 8 10 11 10 2 0 4 -4 4 -10z m-25 -40 c-3
-5 -12 -10 -18 -10 -7 0 -6 4 3 10 19 12 23 12 15 0z m-104 -107 c12 -16 12
-17 -2 -6 -9 7 -19 10 -22 6 -4 -3 -7 -1 -7 5 0 17 16 15 31 -5z m-301 -298
c-7 -9 -15 -13 -17 -11 -6 6 20 36 26 30 2 -2 -2 -10 -9 -19z m-10 -29 c0 -3
-4 -8 -10 -11 -5 -3 -10 -1 -10 4 0 6 5 11 10 11 6 0 10 -2 10 -4z"/>
<path d="M2443 10244 c5 -5 36 -40 70 -77 41 -46 65 -66 76 -62 8 3 12 3 8 -1
-10 -10 23 -45 36 -37 6 3 7 1 3 -5 -8 -13 0 -21 103 -112 98 -86 158 -140
321 -290 229 -210 271 -244 280 -231 5 9 9 8 13 -4 4 -9 3 -13 -3 -10 -23 14
-7 -7 33 -44 l42 -40 23 21 c15 15 20 29 16 42 -3 14 -2 17 4 8 6 -9 14 -7 30
11 l22 24 -37 26 c-28 20 -39 23 -45 14 -6 -8 -8 -7 -6 5 3 19 -60 71 -75 61
-6 -3 -7 -2 -4 4 8 13 -50 56 -65 47 -6 -4 -8 -3 -5 3 4 6 -17 29 -46 51 -197
155 -262 204 -337 257 -47 33 -98 72 -115 87 -35 32 -47 35 -39 11 5 -15 4
-15 -4 -3 -6 8 -9 17 -6 21 2 4 -4 13 -13 20 -13 11 -17 11 -20 2 -3 -7 -9
-13 -15 -13 -7 0 -7 4 0 13 8 10 7 17 -6 28 -21 18 -102 79 -132 99 -12 8 -34
25 -48 38 -27 23 -74 52 -59 36z m274 -230 c-3 -3 -12 -4 -19 -1 -8 3 -5 6 6
6 11 1 17 -2 13 -5z m93 -72 c0 -13 -12 -22 -22 -16 -10 6 -1 24 13 24 5 0 9
-4 9 -8z m55 -40 c-3 -3 -11 0 -18 7 -9 10 -8 11 6 5 10 -3 15 -9 12 -12z m31
-52 c0 -12 -4 -16 -9 -11 -5 5 -6 14 -3 20 10 15 12 14 12 -9z m21 -2 c-3 -8
-6 -5 -6 6 -1 11 2 17 5 13 3 -3 4 -12 1 -19z m56 -23 c-3 -9 -8 -14 -10 -11
-3 3 -2 9 2 15 9 16 15 13 8 -4z m-33 -5 c0 -5 -8 -10 -17 -10 -15 0 -16 2 -3
10 19 12 20 12 20 0z m76 -22 c13 -16 14 -19 2 -10 -11 9 -18 10 -23 2 -3 -5
-12 -10 -18 -10 -7 0 -4 5 6 11 9 6 15 14 12 20 -11 17 2 9 21 -13z m94 -72
c0 -3 -4 -8 -10 -11 -5 -3 -10 -1 -10 4 0 6 5 11 10 11 6 0 10 -2 10 -4z m-39
-39 c-7 -7 -14 -8 -21 -1 -6 6 -2 10 12 11 16 2 18 -1 9 -10z m20 -20 c-10 -9
-11 -8 -5 6 3 10 9 15 12 12 3 -3 0 -11 -7 -18z m164 -85 c-3 -3 -11 0 -18 6
-8 7 -17 9 -20 5 -4 -3 -7 -1 -7 6 0 7 -5 9 -12 5 -7 -4 -8 -3 -4 5 5 8 15 7
36 -6 16 -9 27 -19 25 -21z m18 -55 c3 -7 -3 -13 -14 -14 -15 -1 -16 1 -6 12
15 18 14 18 20 2z m47 3 c0 -5 -2 -10 -4 -10 -3 0 -8 5 -11 10 -3 6 -1 10 4
10 6 0 11 -4 11 -10z m0 -34 c0 -2 -9 -6 -20 -9 -11 -3 -18 -1 -14 4 5 9 34
13 34 5z m125 -46 c-3 -5 -12 -10 -18 -10 -7 0 -6 4 3 10 19 12 23 12 15 0z
m35 6 c0 -2 -8 -10 -17 -17 -16 -13 -17 -12 -4 4 13 16 21 21 21 13z m-40 -90
c0 -3 -4 -8 -10 -11 -5 -3 -10 -1 -10 4 0 6 5 11 10 11 6 0 10 -2 10 -4z"/>
<path d="M7734 10202 c-10 -10 -73 -55 -139 -102 -66 -46 -154 -110 -195 -142
-41 -32 -122 -95 -180 -140 -58 -45 -128 -100 -156 -122 -29 -23 -77 -61 -107
-84 -35 -28 -54 -49 -50 -58 3 -8 0 -14 -7 -14 -6 0 -8 5 -5 10 3 6 3 10 0 10
-6 0 -91 -63 -138 -102 l-27 -23 26 -30 c14 -16 32 -38 39 -49 13 -17 17 -16
68 29 37 32 54 53 50 64 -4 13 -3 14 5 2 9 -12 19 -7 60 30 26 24 76 68 110
97 35 30 59 58 56 64 -4 7 -2 8 4 4 13 -8 259 220 254 235 -1 5 4 8 10 7 7 -2
12 4 10 12 -2 8 0 12 4 8 4 -4 46 28 93 72 202 187 245 229 240 234 -3 3 -14
-2 -25 -12z m-329 -282 c3 -5 -1 -10 -10 -10 -9 0 -13 5 -10 10 3 6 8 10 10
10 2 0 7 -4 10 -10z m-125 -84 c0 -2 -7 -7 -16 -10 -8 -3 -12 -2 -9 4 6 10 25
14 25 6z m0 -30 c0 -3 -4 -8 -10 -11 -5 -3 -10 -1 -10 4 0 6 5 11 10 11 6 0
10 -2 10 -4z m-85 -116 c-3 -5 -10 -10 -16 -10 -5 0 -9 5 -9 10 0 6 7 10 16
10 8 0 12 -4 9 -10z m-75 -66 c0 -8 -19 -13 -24 -6 -3 5 1 9 9 9 8 0 15 -2 15
-3z m-180 -64 c0 -5 -2 -10 -4 -10 -3 0 -8 5 -11 10 -3 6 -1 10 4 10 6 0 11
-4 11 -10z m-77 -65 c-3 -9 -8 -14 -10 -11 -3 3 -2 9 2 15 9 16 15 13 8 -4z
m-1 -57 c-7 -7 -12 -8 -12 -2 0 14 12 26 19 19 2 -3 -1 -11 -7 -17z m38 12 c0
-5 -2 -10 -4 -10 -3 0 -8 5 -11 10 -3 6 -1 10 4 10 6 0 11 -4 11 -10z m-95
-11 c3 -5 -1 -6 -9 -3 -9 3 -16 -2 -18 -13 -3 -16 -4 -16 -9 2 -5 15 -1 21 12
22 10 1 21 -2 24 -8z m35 -19 c0 -5 -2 -10 -4 -10 -3 0 -8 5 -11 10 -3 6 -1
10 4 10 6 0 11 -4 11 -10z m-23 -46 c-3 -3 -12 -4 -19 -1 -8 3 -5 6 6 6 11 1
17 -2 13 -5z"/>
<path d="M5795 9531 c-22 -10 -57 -36 -77 -59 l-37 -41 -62 19 c-95 29 -251
54 -291 46 -19 -3 -43 -15 -53 -26 -16 -18 -73 -201 -155 -501 l-32 -117 -91
-7 c-231 -17 -457 -87 -625 -192 l-73 -45 -37 25 c-117 79 -285 63 -384 -36
-20 -20 -48 -62 -64 -94 -23 -49 -28 -71 -28 -138 0 -100 25 -169 89 -242 l46
-53 3 -117 c2 -96 7 -133 29 -198 51 -156 215 -357 377 -465 258 -171 631
-256 961 -220 204 22 344 63 499 147 115 62 160 94 254 181 189 173 276 352
277 566 l0 100 44 38 c27 24 57 66 77 106 30 60 33 76 33 152 0 99 -20 152
-81 219 -102 114 -238 136 -385 63 l-57 -28 -33 23 c-150 103 -415 190 -637
209 -54 4 -82 11 -79 18 16 44 63 210 131 466 15 56 26 58 166 30 129 -26 160
-41 160 -78 0 -15 9 -45 19 -67 55 -121 193 -169 318 -111 62 29 116 98 133
168 23 95 -37 210 -134 257 -54 27 -145 28 -201 2z m165 -107 c38 -23 60 -64
60 -114 0 -36 -6 -48 -40 -82 -39 -39 -41 -40 -97 -36 -49 4 -60 9 -85 39 -39
46 -45 87 -19 137 11 22 31 48 43 56 29 21 102 20 138 0z m-615 -699 c397 -57
681 -233 805 -500 47 -101 60 -155 60 -247 -1 -285 -184 -534 -505 -688 -142
-68 -261 -97 -435 -108 -406 -26 -776 83 -1003 297 -253 239 -307 539 -143
796 74 116 250 267 401 343 91 46 275 96 411 111 113 14 302 12 409 -4z
m-1167 -166 c17 -6 32 -14 32 -18 0 -4 -14 -20 -31 -37 -56 -52 -144 -168
-179 -237 -19 -37 -38 -67 -42 -67 -11 0 -54 89 -63 127 -10 47 12 138 42 173
58 70 140 90 241 59z m2022 10 c134 -29 199 -180 136 -315 -13 -28 -28 -54
-33 -57 -5 -3 -26 30 -47 74 -24 49 -71 117 -122 178 l-83 99 37 16 c45 18 49
19 112 5z"/>
<path d="M4625 8261 c-45 -20 -92 -70 -101 -107 -4 -14 -4 -49 -2 -79 11 -135
165 -209 281 -136 105 67 117 202 26 287 -60 55 -133 68 -204 35z"/>
<path d="M5485 8262 c-76 -37 -110 -98 -103 -187 6 -69 29 -102 92 -134 69
-35 137 -32 185 7 46 38 69 78 77 135 18 128 -132 235 -251 179z"/>
<path d="M4672 7648 c-18 -18 -14 -62 8 -86 27 -29 144 -96 201 -115 182 -62
456 -42 605 44 63 35 114 86 114 112 0 56 -42 72 -95 36 -109 -74 -240 -111
-390 -111 -134 0 -259 39 -352 108 -34 26 -72 31 -91 12z"/>
<path d="M8590 9889 c-93 -26 -181 -67 -245 -114 -93 -69 -114 -93 -95 -106
13 -8 13 -9 0 -7 -25 5 -71 -37 -64 -58 4 -12 3 -15 -3 -7 -6 8 -18 3 -43 -19
-101 -89 -161 -119 -366 -183 -193 -61 -334 -131 -318 -157 4 -7 2 -8 -4 -4
-15 9 -84 -43 -75 -57 3 -6 1 -7 -5 -3 -7 4 -40 -13 -75 -38 -63 -45 -239
-136 -264 -136 -16 0 -16 -5 -1 -29 11 -18 13 -18 82 1 39 10 86 28 104 39 18
10 39 19 47 19 7 0 15 3 17 8 4 9 77 67 160 125 36 26 72 53 80 59 40 39 181
95 343 138 44 12 109 37 146 56 76 40 213 160 205 180 -3 8 0 13 7 11 7 -1 11
5 9 13 -2 8 0 11 4 7 12 -12 133 113 127 132 -4 13 -3 14 5 2 9 -12 18 -9 54
20 55 44 102 71 156 89 24 7 45 17 48 22 3 4 4 8 2 7 -2 0 -19 -5 -38 -10z
m-162 -83 c-7 -8 -15 -12 -17 -11 -5 6 10 25 20 25 5 0 4 -6 -3 -14z m-88 -71
c-7 -8 -17 -15 -23 -15 -6 0 -2 7 9 15 25 19 30 19 14 0z m-160 -173 c0 -4 -9
-13 -20 -20 -19 -12 -20 -11 -8 8 13 20 28 27 28 12z m-120 -79 c0 -5 -5 -15
-10 -23 -8 -12 -10 -11 -10 8 0 12 5 22 10 22 6 0 10 -3 10 -7z m-69 -66 c-10
-9 -11 -8 -5 6 3 10 9 15 12 12 3 -3 0 -11 -7 -18z m-61 -12 c0 -8 -2 -15 -4
-15 -2 0 -6 7 -10 15 -3 8 -1 15 4 15 6 0 10 -7 10 -15z m-152 -39 c14 5 13 2
-2 -10 -11 -9 -25 -16 -30 -15 -6 0 -6 3 1 5 7 3 11 11 9 17 -1 7 -1 9 1 5 2
-4 12 -5 21 -2z m-75 -31 c-3 -9 -8 -14 -10 -11 -3 3 -2 9 2 15 9 16 15 13 8
-4z m-96 -29 c0 -8 -6 -12 -15 -9 -11 5 -11 7 0 14 7 5 13 9 14 9 0 0 1 -6 1
-14z m-307 -230 c-7 -7 -13 -7 -20 0 -6 6 -3 10 10 10 13 0 16 -4 10 -10z"/>
<path d="M1790 8880 c0 -4 42 -21 93 -38 50 -17 178 -60 282 -96 105 -35 285
-94 400 -132 116 -37 268 -89 339 -116 71 -26 130 -47 131 -46 5 5 35 131 33
133 -2 1 -34 8 -73 14 -77 14 -711 163 -900 212 -66 18 -134 32 -152 33 -17 1
-30 4 -28 7 2 3 -25 12 -61 21 -35 8 -64 12 -64 8z m560 -144 c0 -2 -9 -6 -20
-9 -11 -3 -18 -1 -14 4 5 9 34 13 34 5z m145 -46 c-3 -5 -1 -10 4 -10 6 0 11
5 11 11 0 5 5 7 11 3 8 -5 6 -10 -5 -16 -10 -6 -20 -7 -23 -4 -4 3 -13 0 -22
-6 -10 -8 -9 -4 3 10 20 23 32 30 21 12z m85 -20 c0 -5 -2 -10 -4 -10 -3 0 -8
5 -11 10 -3 6 -1 10 4 10 6 0 11 -4 11 -10z m56 -23 c2 -19 -33 -18 -40 0 -5
13 -4 14 9 3 12 -10 15 -9 15 5 0 20 13 13 16 -8z m29 3 c3 -5 1 -10 -4 -10
-6 0 -11 5 -11 10 0 6 2 10 4 10 3 0 8 -4 11 -10z m-85 -10 c0 -5 -2 -10 -4
-10 -3 0 -8 5 -11 10 -3 6 -1 10 4 10 6 0 11 -4 11 -10z m130 0 c0 -5 -7 -7
-15 -4 -8 4 -15 8 -15 10 0 2 7 4 15 4 8 0 15 -4 15 -10z m110 -42 c0 -11 -12
-10 -30 2 -12 7 -10 9 8 7 12 0 22 -5 22 -9z m-30 -18 c0 -5 -2 -10 -4 -10 -3
0 -8 5 -11 10 -3 6 -1 10 4 10 6 0 11 -4 11 -10z m203 -15 c-7 -21 -12 -19
-10 4 0 11 5 18 9 15 4 -3 5 -11 1 -19z m-173 11 c0 -2 -8 -10 -17 -17 -16
-13 -17 -12 -4 4 13 16 21 21 21 13z m147 -28 c-3 -8 -6 -5 -6 6 -1 11 2 17 5
13 3 -3 4 -12 1 -19z"/>
<path d="M1051 8924 c0 -11 3 -14 6 -6 3 7 2 16 -1 19 -3 4 -6 -2 -5 -13z"/>
<path d="M1070 8895 c0 -8 2 -15 4 -15 2 0 6 7 10 15 3 8 1 15 -4 15 -6 0 -10
-7 -10 -15z"/>
<path d="M1390 8756 c0 -2 6 -9 13 -15 10 -8 14 -7 14 4 0 8 -6 15 -14 15 -7
0 -13 -2 -13 -4z"/>
<path d="M1236 8713 c-6 -14 -5 -15 5 -6 7 7 10 15 7 18 -3 3 -9 -2 -12 -12z"/>
<path d="M1522 8650 c0 -14 2 -19 5 -12 2 6 2 18 0 25 -3 6 -5 1 -5 -13z"/>
<path d="M2000 8560 c0 -5 5 -10 11 -10 5 0 7 5 4 10 -3 6 -8 10 -11 10 -2 0
-4 -4 -4 -10z"/>
<path d="M1790 8519 c0 -5 5 -7 10 -4 6 3 10 8 10 11 0 2 -4 4 -10 4 -5 0 -10
-5 -10 -11z"/>
<path d="M1837 8449 c7 -7 15 -10 18 -7 3 3 -2 9 -12 12 -14 6 -15 5 -6 -5z"/>
<path d="M9010 8866 c0 -2 7 -7 16 -10 8 -3 12 -2 9 4 -6 10 -25 14 -25 6z"/>
<path d="M9143 8815 c0 -8 4 -12 9 -9 5 3 6 10 3 15 -9 13 -12 11 -12 -6z"/>
<path d="M9000 8779 c0 -5 5 -7 10 -4 6 3 10 8 10 11 0 2 -4 4 -10 4 -5 0 -10
-5 -10 -11z"/>
<path d="M9010 8670 c-9 -6 -10 -10 -3 -10 6 0 15 5 18 10 8 12 4 12 -15 0z"/>
<path d="M9020 8576 c0 -2 8 -10 18 -17 15 -13 16 -12 3 4 -13 16 -21 21 -21
13z"/>
<path d="M9174 8492 c3 -5 0 -13 -6 -15 -9 -4 -10 -6 -1 -6 17 -1 25 16 12 25
-7 4 -9 3 -5 -4z"/>
<path d="M8795 8429 c-4 -6 -5 -12 -2 -15 2 -3 7 2 10 11 7 17 1 20 -8 4z"/>
<path d="M8235 8410 c-3 -5 -1 -10 4 -10 6 0 11 5 11 10 0 6 -2 10 -4 10 -3 0
-8 -4 -11 -10z"/>
<path d="M8688 8388 c5 -5 16 -8 23 -6 8 3 3 7 -10 11 -17 4 -21 3 -13 -5z"/>
<path d="M7880 8360 c0 -5 5 -10 10 -10 6 0 10 5 10 10 0 6 -4 10 -10 10 -5 0
-10 -4 -10 -10z"/>
<path d="M7760 8306 c0 -2 7 -7 16 -10 8 -3 12 -2 9 4 -6 10 -25 14 -25 6z"/>
<path d="M7936 8272 c-2 -4 4 -8 14 -8 10 0 16 4 14 8 -3 4 -9 8 -14 8 -5 0
-11 -4 -14 -8z"/>
<path d="M1309 8156 c-2 -2 -24 -6 -49 -9 -102 -13 -183 -28 -199 -38 -13 -9
-13 -9 4 -4 42 15 305 18 363 5 100 -22 165 -42 242 -72 84 -33 192 -55 260
-52 25 1 62 3 84 3 30 1 37 4 32 16 -3 8 -1 15 3 15 5 0 11 -5 13 -12 4 -12
134 5 273 37 74 17 169 16 355 -4 52 -6 141 -13 198 -15 l102 -5 0 29 c0 26
-3 29 -47 34 -145 17 -194 18 -210 5 -9 -8 -14 -9 -10 -3 4 7 -3 14 -18 16
-15 3 -25 1 -25 -6 0 -6 -5 -4 -10 4 -8 12 -37 15 -167 15 -138 -1 -177 -5
-308 -32 -259 -55 -333 -54 -520 8 -117 39 -250 69 -306 69 -30 0 -58 -2 -60
-4z m31 -16 c0 -5 -5 -10 -11 -10 -5 0 -7 5 -4 10 3 6 8 10 11 10 2 0 4 -4 4
-10z m61 -8 c-13 -2 -27 0 -32 5 -6 6 3 7 23 4 28 -4 29 -6 9 -9z m189 -42 c0
-5 -5 -10 -11 -10 -5 0 -7 5 -4 10 3 6 8 10 11 10 2 0 4 -4 4 -10z m30 -5 c0
-8 -2 -15 -4 -15 -2 0 -6 7 -10 15 -3 8 -1 15 4 15 6 0 10 -7 10 -15z m757 1
c0 -8 -12 -16 -26 -19 l-25 -5 25 19 c13 10 24 19 25 19 0 0 1 -6 1 -14z m138
4 c3 -6 -1 -7 -9 -4 -10 4 -16 1 -16 -7 0 -7 -3 -10 -6 -6 -7 7 4 27 16 27 5
0 12 -4 15 -10z m-860 -21 c-10 -15 -25 -10 -19 6 4 8 10 12 15 9 5 -3 7 -10
4 -15z m635 17 c0 -2 -9 -6 -20 -9 -11 -3 -18 -1 -14 4 5 9 34 13 34 5z m-610
-21 c0 -8 -4 -15 -10 -15 -5 0 -7 7 -4 15 4 8 8 15 10 15 2 0 4 -7 4 -15z
m527 -14 c0 -11 -5 -17 -9 -15 -11 7 -10 34 1 34 6 0 9 -9 8 -19z m-452 -1 c3
-5 1 -10 -4 -10 -6 0 -11 5 -11 10 0 6 2 10 4 10 3 0 8 -4 11 -10z m1100 0 c3
-5 1 -10 -4 -10 -6 0 -11 5 -11 10 0 6 2 10 4 10 3 0 8 -4 11 -10z m-741 -15
c-4 -8 -10 -15 -15 -15 -4 0 -6 7 -3 15 4 8 10 15 15 15 4 0 6 -7 3 -15z m136
11 c0 -11 -19 -15 -25 -6 -3 5 1 10 9 10 9 0 16 -2 16 -4z m567 -2 c-3 -3 -12
-4 -19 -1 -8 3 -5 6 6 6 11 1 17 -2 13 -5z m-1001 -13 c-4 -5 0 -11 6 -14 7
-3 3 -4 -9 -4 -23 1 -29 8 -16 20 10 10 25 8 19 -2z m154 -5 c0 -2 -11 -6 -25
-8 -14 -3 -25 -1 -25 3 0 5 11 9 25 9 14 0 25 -2 25 -4z"/>
<path d="M8673 8152 c-42 -2 -53 -7 -53 -20 0 -13 -2 -14 -9 -3 -10 16 -73 0
-214 -55 -135 -53 -192 -65 -300 -65 -93 0 -177 13 -302 46 -55 14 -87 20
-190 34 -75 10 -233 3 -297 -15 -5 -1 -21 -2 -38 -3 -25 -1 -29 -5 -28 -25 l2
-24 211 1 c203 2 213 1 313 -26 56 -16 110 -26 119 -22 10 3 14 2 9 -2 -16
-16 166 -32 259 -23 97 10 142 22 248 65 50 20 65 30 55 37 -9 7 -7 8 7 4 11
-3 52 5 91 18 81 28 253 51 316 43 24 -3 74 -11 112 -17 38 -6 70 -9 73 -7 4
4 -126 38 -164 43 -12 1 -26 5 -32 8 -5 4 -12 2 -16 -4 -3 -5 -21 -9 -38 -9
l-32 2 35 6 35 7 -40 6 c-22 3 -49 6 -60 5 -11 -1 -44 -3 -72 -5z m-13 -27
c-7 -8 -18 -15 -24 -15 -6 0 -2 7 8 15 25 19 32 19 16 0z m97 9 c-3 -3 -12 -4
-19 -1 -8 3 -5 6 6 6 11 1 17 -2 13 -5z m-190 -20 c-3 -3 -12 -4 -19 -1 -8 3
-5 6 6 6 11 1 17 -2 13 -5z m-1038 -52 c0 -11 -2 -12 -6 -4 -2 6 -9 10 -14 7
-5 -4 -6 1 -3 9 8 20 24 11 23 -12z m906 8 c-3 -5 -12 -10 -18 -10 -7 0 -6 4
3 10 19 12 23 12 15 0z m-871 -16 c3 -8 2 -12 -4 -9 -6 3 -10 10 -10 16 0 14
7 11 14 -7z m131 -2 c-3 -3 -11 0 -18 7 -9 10 -8 11 6 5 10 -3 15 -9 12 -12z
m-44 -15 c-10 -9 -11 -8 -5 6 3 10 9 15 12 12 3 -3 0 -11 -7 -18z m119 3 c0
-5 -7 -7 -15 -4 -8 4 -15 8 -15 10 0 2 7 4 15 4 8 0 15 -4 15 -10z m-15 -20
c3 -6 -1 -7 -9 -4 -18 7 -21 14 -7 14 6 0 13 -4 16 -10z m52 -12 c-3 -8 -6 -5
-6 6 -1 11 2 17 5 13 3 -3 4 -12 1 -19z m537 7 c3 -8 1 -15 -4 -15 -6 0 -10 7
-10 15 0 8 2 15 4 15 2 0 6 -7 10 -15z m-411 -22 c-7 -2 -19 -2 -25 0 -7 3 -2
5 12 5 14 0 19 -2 13 -5z m64 -6 c0 -8 -6 -14 -13 -14 -7 0 -10 6 -7 14 3 7 8
13 12 13 4 0 8 -6 8 -13z m63 -13 c0 -8 -5 -12 -10 -9 -6 4 -8 11 -5 16 9 14
15 11 15 -7z m55 -4 c-3 -5 -12 -10 -18 -10 -7 0 -6 4 3 10 19 12 23 12 15 0z
m30 0 c3 -5 1 -10 -4 -10 -6 0 -11 5 -11 10 0 6 2 10 4 10 3 0 8 -4 11 -10z"/>
<path d="M3000 7641 c-15 -9 -331 -113 -380 -126 -14 -3 -68 -19 -120 -35
-196 -60 -426 -129 -468 -140 -23 -6 -40 -15 -37 -20 3 -4 -4 -6 -15 -3 -24 6
-210 -47 -210 -60 0 -11 74 -1 232 33 73 15 187 39 253 53 123 26 353 71 415
81 44 8 59 11 145 31 82 20 90 21 141 29 22 4 53 12 70 18 l30 11 -15 68 c-15
72 -16 74 -41 60z m15 -32 c-4 -5 -14 -8 -23 -8 -15 1 -15 2 1 6 9 2 14 9 11
15 -4 7 -2 8 5 4 6 -4 9 -12 6 -17z m2 -25 c-3 -3 -12 -4 -19 -1 -8 3 -5 6 6
6 11 1 17 -2 13 -5z m-200 -70 c-3 -3 -12 -4 -19 -1 -8 3 -5 6 6 6 11 1 17 -2
13 -5z m27 -10 c3 -8 2 -12 -4 -9 -6 3 -10 10 -10 16 0 14 7 11 14 -7z m-204
-18 c0 -8 -7 -21 -15 -29 -8 -8 -11 -19 -7 -23 4 -5 0 -3 -8 4 -13 12 -13 14
3 23 9 6 17 17 17 24 0 8 2 15 5 15 3 0 5 -6 5 -14z m185 -4 c-3 -3 -11 0 -18
7 -9 10 -8 11 6 5 10 -3 15 -9 12 -12z m-235 4 c0 -2 -7 -7 -16 -10 -8 -3 -12
-2 -9 4 6 10 25 14 25 6z m90 -41 c0 -5 -5 -3 -10 5 -5 8 -10 20 -10 25 0 6 5
3 10 -5 5 -8 10 -19 10 -25z m-235 -23 c-3 -3 -11 0 -18 7 -9 10 -8 11 6 5 10
-3 15 -9 12 -12z m-310 -90 c-3 -3 -11 0 -18 7 -9 10 -8 11 6 5 10 -3 15 -9
12 -12z m-75 -6 c0 -2 -7 -7 -16 -10 -8 -3 -12 -2 -9 4 6 10 25 14 25 6z
m-140 -36 c0 -5 -8 -10 -17 -10 -15 0 -16 2 -3 10 19 12 20 12 20 0z"/>
<path d="M1235 5620 c-3 -5 -1 -10 4 -10 6 0 11 5 11 10 0 6 -2 10 -4 10 -3 0
-8 -4 -11 -10z"/>
<path d="M2890 5618 c0 -4 6 -8 14 -8 8 0 17 4 20 8 2 4 -4 8 -15 8 -10 0 -19
-4 -19 -8z"/>
<path d="M6560 5620 c0 -6 7 -10 15 -10 8 0 15 2 15 4 0 2 -7 6 -15 10 -8 3
-15 1 -15 -4z"/>
<path d="M6615 5620 c-19 -8 -19 -9 3 -9 12 -1 22 4 22 9 0 6 -1 10 -2 9 -2 0
-12 -4 -23 -9z"/>
<path d="M7545 5620 c-3 -5 1 -10 10 -10 9 0 13 5 10 10 -3 6 -8 10 -10 10 -2
0 -7 -4 -10 -10z"/>
<path d="M7607 5623 c-4 -3 -7 -11 -7 -17 0 -6 5 -5 12 2 6 6 9 14 7 17 -3 3
-9 2 -12 -2z"/>
<path d="M7635 5619 c-11 -16 -1 -19 13 -3 7 8 8 14 3 14 -5 0 -13 -5 -16 -11z"/>
<path d="M8560 5626 c0 -2 7 -7 16 -10 8 -3 12 -2 9 4 -6 10 -25 14 -25 6z"/>
<path d="M8645 5620 c-16 -7 -17 -9 -3 -9 9 -1 20 4 23 9 7 11 7 11 -20 0z"/>
<path d="M8368 5613 c7 -3 16 -2 19 1 4 3 -2 6 -13 5 -11 0 -14 -3 -6 -6z"/>
<path d="M1625 5590 c3 -5 8 -10 11 -10 2 0 4 5 4 10 0 6 -5 10 -11 10 -5 0
-7 -4 -4 -10z"/>
<path d="M2626 5547 c3 -10 9 -15 12 -12 3 3 0 11 -7 18 -10 9 -11 8 -5 -6z"/>
<path d="M1822 5530 c0 -14 2 -19 5 -12 2 6 2 18 0 25 -3 6 -5 1 -5 -13z"/>
<path d="M1476 5517 c3 -10 9 -15 12 -12 3 3 0 11 -7 18 -10 9 -11 8 -5 -6z"/>
<path d="M2400 5496 c0 -3 9 -10 20 -16 11 -6 20 -8 20 -6 0 3 -9 10 -20 16
-11 6 -20 8 -20 6z"/>
<path d="M1220 5470 c-9 -6 -10 -10 -3 -10 6 0 15 5 18 10 8 12 4 12 -15 0z"/>
<path d="M8650 5441 c0 -6 4 -13 10 -16 6 -3 7 1 4 9 -7 18 -14 21 -14 7z"/>
<path d="M1685 5420 c-3 -6 1 -7 9 -4 18 7 21 14 7 14 -6 0 -13 -4 -16 -10z"/>
<path d="M2350 5350 c0 -5 5 -10 11 -10 5 0 7 5 4 10 -3 6 -8 10 -11 10 -2 0
-4 -4 -4 -10z"/>
<path d="M4795 5340 c3 -5 8 -10 11 -10 2 0 4 5 4 10 0 6 -5 10 -11 10 -5 0
-7 -4 -4 -10z"/>
<path d="M8615 5320 c-3 -5 -1 -10 4 -10 6 0 11 5 11 10 0 6 -2 10 -4 10 -3 0
-8 -4 -11 -10z"/>
<path d="M2363 5275 c0 -8 4 -12 9 -9 5 3 6 10 3 15 -9 13 -12 11 -12 -6z"/>
<path d="M6713 5255 c0 -8 4 -12 9 -9 5 3 6 10 3 15 -9 13 -12 11 -12 -6z"/>
<path d="M7955 5240 c-3 -6 1 -7 9 -4 18 7 21 14 7 14 -6 0 -13 -4 -16 -10z"/>
<path d="M9181 5234 c0 -11 3 -14 6 -6 3 7 2 16 -1 19 -3 4 -6 -2 -5 -13z"/>
<path d="M3515 5230 c3 -5 8 -10 11 -10 2 0 4 5 4 10 0 6 -5 10 -11 10 -5 0
-7 -4 -4 -10z"/>
<path d="M1110 5211 c0 -6 4 -13 10 -16 6 -3 7 1 4 9 -7 18 -14 21 -14 7z"/>
<path d="M7946 5203 c-6 -14 -5 -15 5 -6 7 7 10 15 7 18 -3 3 -9 -2 -12 -12z"/>
<path d="M8089 5193 c-13 -16 -12 -17 4 -4 9 7 17 15 17 17 0 8 -8 3 -21 -13z"/>
<path d="M2276 5183 c-6 -14 -5 -15 5 -6 7 7 10 15 7 18 -3 3 -9 -2 -12 -12z"/>
<path d="M1940 5180 c0 -5 5 -10 11 -10 5 0 7 5 4 10 -3 6 -8 10 -11 10 -2 0
-4 -4 -4 -10z"/>
<path d="M6155 5160 c-3 -6 1 -7 9 -4 18 7 21 14 7 14 -6 0 -13 -4 -16 -10z"/>
<path d="M9181 5144 c0 -11 3 -14 6 -6 3 7 2 16 -1 19 -3 4 -6 -2 -5 -13z"/>
<path d="M4160 5140 c-9 -6 -10 -10 -3 -10 6 0 15 5 18 10 8 12 4 12 -15 0z"/>
<path d="M1496 5132 c-2 -4 -1 -14 4 -22 7 -11 9 -9 7 8 -1 24 -3 26 -11 14z"/>
<path d="M7800 5130 c-8 -5 -12 -12 -9 -15 4 -3 12 1 19 10 14 17 11 19 -10 5z"/>
<path d="M4060 5102 c0 -5 7 -9 15 -9 8 0 12 4 9 9 -3 4 -9 8 -15 8 -5 0 -9
-4 -9 -8z"/>
<path d="M1249 5073 c-13 -16 -12 -17 4 -4 9 7 17 15 17 17 0 8 -8 3 -21 -13z"/>
<path d="M4800 5070 c-9 -6 -10 -10 -3 -10 6 0 15 5 18 10 8 12 4 12 -15 0z"/>
<path d="M8076 5013 c-6 -14 -5 -15 5 -6 7 7 10 15 7 18 -3 3 -9 -2 -12 -12z"/>
<path d="M5426 4984 c-5 -14 -4 -15 9 -4 17 14 19 20 6 20 -5 0 -12 -7 -15
-16z"/>
<path d="M4153 4966 c-9 -11 -9 -15 0 -19 7 -3 14 3 14 14 2 22 2 22 -14 5z"/>
<path d="M7080 4976 c0 -2 8 -10 18 -17 15 -13 16 -12 3 4 -13 16 -21 21 -21
13z"/>
<path d="M8488 4973 c7 -3 16 -2 19 1 4 3 -2 6 -13 5 -11 0 -14 -3 -6 -6z"/>
<path d="M8187 4939 c7 -7 15 -10 18 -7 3 3 -2 9 -12 12 -14 6 -15 5 -6 -5z"/>
<path d="M9110 4936 c0 -2 8 -10 18 -17 15 -13 16 -12 3 4 -13 16 -21 21 -21
13z"/>
<path d="M8124 4898 c-4 -7 -4 -10 1 -6 4 4 15 2 24 -5 14 -11 14 -10 2 6 -16
20 -18 21 -27 5z"/>
<path d="M6966 4877 c3 -10 9 -15 12 -12 3 3 0 11 -7 18 -10 9 -11 8 -5 -6z"/>
<path d="M4710 4860 c0 -5 5 -10 11 -10 5 0 7 5 4 10 -3 6 -8 10 -11 10 -2 0
-4 -4 -4 -10z"/>
<path d="M5385 4851 c-9 -15 15 -25 28 -12 9 9 7 10 -7 5 -13 -5 -17 -4 -12 4
4 7 5 12 2 12 -3 0 -7 -4 -11 -9z"/>
<path d="M9181 4814 c0 -11 3 -14 6 -6 3 7 2 16 -1 19 -3 4 -6 -2 -5 -13z"/>
<path d="M1400 4809 c0 -5 5 -7 10 -4 6 3 10 8 10 11 0 2 -4 4 -10 4 -5 0 -10
-5 -10 -11z"/>
<path d="M3013 4795 c0 -8 4 -12 9 -9 5 3 6 10 3 15 -9 13 -12 11 -12 -6z"/>
<path d="M6185 4770 c-3 -5 -1 -10 4 -10 6 0 11 5 11 10 0 6 -2 10 -4 10 -3 0
-8 -4 -11 -10z"/>
<path d="M3000 4756 c0 -2 7 -7 16 -10 8 -3 12 -2 9 4 -6 10 -25 14 -25 6z"/>
<path d="M7135 4739 c-4 -6 -5 -12 -2 -15 2 -3 7 2 10 11 7 17 1 20 -8 4z"/>
<path d="M8283 4735 c0 -8 4 -12 9 -9 4 3 8 9 8 15 0 5 -4 9 -8 9 -5 0 -9 -7
-9 -15z"/>
<path d="M9175 4740 c3 -5 8 -10 11 -10 2 0 4 5 4 10 0 6 -5 10 -11 10 -5 0
-7 -4 -4 -10z"/>
<path d="M5420 4729 c0 -5 5 -7 10 -4 6 3 10 8 10 11 0 2 -4 4 -10 4 -5 0 -10
-5 -10 -11z"/>
<path d="M3245 4690 c3 -5 8 -10 11 -10 2 0 4 5 4 10 0 6 -5 10 -11 10 -5 0
-7 -4 -4 -10z"/>
<path d="M3113 4675 c0 -8 4 -12 9 -9 5 3 6 10 3 15 -9 13 -12 11 -12 -6z"/>
<path d="M3955 4680 c3 -5 8 -10 11 -10 2 0 4 5 4 10 0 6 -5 10 -11 10 -5 0
-7 -4 -4 -10z"/>
<path d="M8447 4679 c7 -7 15 -10 18 -7 3 3 -2 9 -12 12 -14 6 -15 5 -6 -5z"/>
<path d="M5568 4663 c7 -3 16 -2 19 1 4 3 -2 6 -13 5 -11 0 -14 -3 -6 -6z"/>
<path d="M7186 4658 c3 -5 10 -6 15 -3 13 9 11 12 -6 12 -8 0 -12 -4 -9 -9z"/>
<path d="M8031 4654 c0 -11 3 -14 6 -6 3 7 2 16 -1 19 -3 4 -6 -2 -5 -13z"/>
<path d="M9181 4654 c0 -11 3 -14 6 -6 3 7 2 16 -1 19 -3 4 -6 -2 -5 -13z"/>
<path d="M2225 4620 c-3 -5 -1 -10 4 -10 6 0 11 5 11 10 0 6 -2 10 -4 10 -3 0
-8 -4 -11 -10z"/>
<path d="M1051 4594 c0 -11 3 -14 6 -6 3 7 2 16 -1 19 -3 4 -6 -2 -5 -13z"/>
<path d="M2026 4587 c3 -10 9 -15 12 -12 3 3 0 11 -7 18 -10 9 -11 8 -5 -6z"/>
<path d="M1468 4563 c7 -3 16 -2 19 1 4 3 -2 6 -13 5 -11 0 -14 -3 -6 -6z"/>
<path d="M6445 4560 c-3 -6 1 -7 9 -4 18 7 21 14 7 14 -6 0 -13 -4 -16 -10z"/>
<path d="M2873 4525 c0 -8 4 -12 9 -9 5 3 6 10 3 15 -9 13 -12 11 -12 -6z"/>
<path d="M5485 4531 c-3 -5 0 -13 6 -17 7 -4 9 -3 5 4 -3 5 0 13 6 15 9 4 10
6 1 6 -6 1 -14 -3 -18 -8z"/>
<path d="M8819 4503 c-13 -16 -12 -17 4 -4 16 13 21 21 13 21 -2 0 -10 -8 -17
-17z"/>
<path d="M6301 4474 c0 -11 3 -14 6 -6 3 7 2 16 -1 19 -3 4 -6 -2 -5 -13z"/>
<path d="M6585 4480 c-3 -6 1 -7 9 -4 18 7 21 14 7 14 -6 0 -13 -4 -16 -10z"/>
<path d="M8673 4475 c0 -8 4 -12 9 -9 5 3 6 10 3 15 -9 13 -12 11 -12 -6z"/>
<path d="M8920 4476 c0 -2 8 -10 18 -17 15 -13 16 -12 3 4 -13 16 -21 21 -21
13z"/>
<path d="M3900 4450 c-9 -6 -10 -10 -3 -10 6 0 15 5 18 10 8 12 4 12 -15 0z"/>
<path d="M8587 4439 c7 -7 15 -10 18 -7 3 3 -2 9 -12 12 -14 6 -15 5 -6 -5z"/>
<path d="M4745 4430 c-3 -6 1 -7 9 -4 18 7 21 14 7 14 -6 0 -13 -4 -16 -10z"/>
<path d="M4780 4436 c0 -2 7 -7 16 -10 8 -3 12 -2 9 4 -6 10 -25 14 -25 6z"/>
<path d="M7350 4426 c0 -2 8 -10 18 -17 15 -13 16 -12 3 4 -13 16 -21 21 -21
13z"/>
<path d="M2900 4416 c0 -2 7 -7 16 -10 8 -3 12 -2 9 4 -6 10 -25 14 -25 6z"/>
<path d="M2015 4379 c-4 -6 -5 -12 -2 -15 2 -3 7 2 10 11 7 17 1 20 -8 4z"/>
<path d="M5436 4352 c-2 -4 -1 -14 4 -22 7 -11 9 -9 7 8 -1 24 -3 26 -11 14z"/>
<path d="M6553 4345 c0 -8 4 -12 9 -9 4 3 8 9 8 15 0 5 -4 9 -8 9 -5 0 -9 -7
-9 -15z"/>
<path d="M8568 4343 c7 -3 16 -2 19 1 4 3 -2 6 -13 5 -11 0 -14 -3 -6 -6z"/>
<path d="M5537 4329 c7 -7 15 -10 18 -7 3 3 -2 9 -12 12 -14 6 -15 5 -6 -5z"/>
<path d="M8480 4336 c0 -2 7 -7 16 -10 8 -3 12 -2 9 4 -6 10 -25 14 -25 6z"/>
<path d="M6430 4309 c0 -5 5 -7 10 -4 6 3 10 8 10 11 0 2 -4 4 -10 4 -5 0 -10
-5 -10 -11z"/>
<path d="M1345 4300 c3 -5 8 -10 11 -10 2 0 4 5 4 10 0 6 -5 10 -11 10 -5 0
-7 -4 -4 -10z"/>
<path d="M1220 4289 c0 -5 5 -7 10 -4 6 3 10 8 10 11 0 2 -4 4 -10 4 -5 0 -10
-5 -10 -11z"/>
<path d="M1257 4289 c7 -7 15 -10 18 -7 3 3 -2 9 -12 12 -14 6 -15 5 -6 -5z"/>
<path d="M5768 4263 c7 -3 16 -2 19 1 4 3 -2 6 -13 5 -11 0 -14 -3 -6 -6z"/>
<path d="M7346 4237 c3 -10 9 -15 12 -12 3 3 0 11 -7 18 -10 9 -11 8 -5 -6z"/>
<path d="M6740 4230 c-9 -6 -10 -10 -3 -10 6 0 15 5 18 10 8 12 4 12 -15 0z"/>
<path d="M3901 4203 c-1 -6 -4 -20 -7 -30 -5 -17 -5 -17 6 0 6 10 9 23 6 30
-3 9 -5 9 -5 0z"/>
<path d="M6786 4187 c3 -10 9 -15 12 -12 3 3 0 11 -7 18 -10 9 -11 8 -5 -6z"/>
<path d="M4570 4180 c0 -5 5 -10 11 -10 5 0 7 5 4 10 -3 6 -8 10 -11 10 -2 0
-4 -4 -4 -10z"/>
<path d="M7848 4183 c7 -3 16 -2 19 1 4 3 -2 6 -13 5 -11 0 -14 -3 -6 -6z"/>
<path d="M9182 4105 c0 -16 2 -22 5 -12 2 9 2 23 0 30 -3 6 -5 -1 -5 -18z"/>
<path d="M2101 4104 c0 -11 3 -14 6 -6 3 7 2 16 -1 19 -3 4 -6 -2 -5 -13z"/>
<path d="M7275 4101 c-3 -5 0 -13 6 -17 7 -4 9 -3 5 4 -3 5 0 13 6 15 9 4 10
6 1 6 -6 1 -14 -3 -18 -8z"/>
<path d="M8157 4090 c7 -8 20 -15 29 -16 9 -1 13 1 9 4 -4 4 -10 7 -13 7 -4 0
-14 4 -22 9 -12 7 -13 6 -3 -4z"/>
<path d="M1310 4079 c0 -5 5 -7 10 -4 6 3 10 8 10 11 0 2 -4 4 -10 4 -5 0 -10
-5 -10 -11z"/>
<path d="M3960 4080 c-9 -6 -10 -10 -3 -10 6 0 15 5 18 10 8 12 4 12 -15 0z"/>
<path d="M1795 4059 c-4 -6 -5 -12 -2 -15 2 -3 7 2 10 11 7 17 1 20 -8 4z"/>
<path d="M8905 4050 c-3 -5 -1 -10 4 -10 6 0 11 5 11 10 0 6 -2 10 -4 10 -3 0
-8 -4 -11 -10z"/>
<path d="M8475 4041 c-3 -5 -2 -12 3 -15 5 -3 9 1 9 9 0 17 -3 19 -12 6z"/>
<path d="M4825 4020 c-3 -5 -1 -10 4 -10 6 0 11 5 11 10 0 6 -2 10 -4 10 -3 0
-8 -4 -11 -10z"/>
<path d="M7975 4000 c-3 -6 1 -7 9 -4 18 7 21 14 7 14 -6 0 -13 -4 -16 -10z"/>
<path d="M6835 3990 c3 -5 8 -10 11 -10 2 0 4 5 4 10 0 6 -5 10 -11 10 -5 0
-7 -4 -4 -10z"/>
<path d="M1828 3983 c6 -2 18 -2 25 0 6 3 1 5 -13 5 -14 0 -19 -2 -12 -5z"/>
<path d="M7268 3933 c7 -3 16 -2 19 1 4 3 -2 6 -13 5 -11 0 -14 -3 -6 -6z"/>
<path d="M4775 3920 c-3 -6 1 -7 9 -4 18 7 21 14 7 14 -6 0 -13 -4 -16 -10z"/>
<path d="M7556 3913 c-6 -14 -5 -15 5 -6 7 7 10 15 7 18 -3 3 -9 -2 -12 -12z"/>
<path d="M7820 3926 c0 -2 7 -7 16 -10 8 -3 12 -2 9 4 -6 10 -25 14 -25 6z"/>
<path d="M5670 3899 c0 -5 5 -7 10 -4 6 3 10 8 10 11 0 2 -4 4 -10 4 -5 0 -10
-5 -10 -11z"/>
<path d="M3570 3856 c0 -2 7 -7 16 -10 8 -3 12 -2 9 4 -6 10 -25 14 -25 6z"/>
<path d="M7500 3839 c0 -5 5 -7 10 -4 6 3 10 8 10 11 0 2 -4 4 -10 4 -5 0 -10
-5 -10 -11z"/>
<path d="M2038 3833 c7 -3 16 -2 19 1 4 3 -2 6 -13 5 -11 0 -14 -3 -6 -6z"/>
<path d="M3970 3825 c0 -8 2 -15 4 -15 2 0 6 7 10 15 3 8 1 15 -4 15 -6 0 -10
-7 -10 -15z"/>
<path d="M1590 3820 c-9 -6 -10 -10 -3 -10 6 0 15 5 18 10 8 12 4 12 -15 0z"/>
<path d="M7565 3820 c-3 -6 1 -7 9 -4 18 7 21 14 7 14 -6 0 -13 -4 -16 -10z"/>
<path d="M6730 3800 c0 -5 5 -10 11 -10 5 0 7 5 4 10 -3 6 -8 10 -11 10 -2 0
-4 -4 -4 -10z"/>
<path d="M2807 3789 c7 -7 15 -10 18 -7 3 3 -2 9 -12 12 -14 6 -15 5 -6 -5z"/>
<path d="M5266 3765 c-18 -14 -15 -15 35 -13 43 1 46 2 16 5 -20 2 -35 8 -32
14 8 12 3 11 -19 -6z"/>
<path d="M1113 3758 c-2 -5 123 -8 279 -7 156 0 278 3 273 5 -19 8 -547 9
-552 2z"/>
<path d="M2730 3760 l-135 -6 153 -2 c83 -1 152 0 152 2 0 9 -44 11 -170 6z"/>
<path d="M5585 3760 l-230 -6 238 -2 c157 -1 236 1 232 8 -3 6 -7 9 -8 8 -1
-1 -105 -5 -232 -8z"/>
<path d="M5849 3759 c-10 -6 -4 -9 19 -9 17 0 32 2 32 4 0 9 -39 13 -51 5z"/>
<path d="M7290 3760 c-13 -8 -12 -10 3 -10 9 0 17 5 17 10 0 12 -1 12 -20 0z"/>
<path d="M7350 3759 c-19 -4 66 -6 190 -6 223 1 211 4 -30 9 -69 2 -141 0
-160 -3z"/>
<path d="M8275 3760 c-227 -5 -206 -6 160 -6 231 -1 409 0 395 2 -53 7 -305 9
-555 4z"/>
<path d="M1698 3753 c12 -2 32 -2 45 0 12 2 2 4 -23 4 -25 0 -35 -2 -22 -4z"/>
<path d="M1973 3753 c114 -2 300 -2 415 0 114 1 20 2 -208 2 -228 0 -322 -1
-207 -2z"/>
<path d="M2933 3753 c15 -2 39 -2 55 0 15 2 2 4 -28 4 -30 0 -43 -2 -27 -4z"/>
<path d="M3878 3753 c7 -3 16 -2 19 1 4 3 -2 6 -13 5 -11 0 -14 -3 -6 -6z"/>
<path d="M3918 3753 c7 -3 16 -2 19 1 4 3 -2 6 -13 5 -11 0 -14 -3 -6 -6z"/>
<path d="M7233 3753 c9 -2 23 -2 30 0 6 3 -1 5 -18 5 -16 0 -22 -2 -12 -5z"/>
<path d="M7828 3753 c34 -2 90 -2 125 0 34 2 6 3 -63 3 -69 0 -97 -1 -62 -3z"/>
<path d="M8888 3753 c17 -2 47 -2 65 0 17 2 3 4 -33 4 -36 0 -50 -2 -32 -4z"/>
<path d="M9038 3753 c28 -2 76 -2 105 0 28 2 5 3 -53 3 -58 0 -81 -1 -52 -3z"/>
<path d="M3409 6713 c-1 -5 -1 -12 0 -16 1 -5 -3 -5 -9 -2 -6 4 -35 -15 -63
-42 -29 -26 -104 -93 -167 -148 -164 -144 -342 -328 -327 -338 8 -6 7 -7 -4
-4 -11 4 -77 -55 -205 -179 -104 -102 -175 -177 -159 -167 55 32 105 76 98 86
-3 6 -1 7 6 3 7 -5 35 12 69 42 31 27 83 68 115 91 33 24 55 47 51 53 -4 7 -2
8 5 4 7 -5 50 23 108 71 53 43 119 96 148 118 29 22 70 54 91 70 140 107 342
280 338 287 -3 5 -12 7 -19 4 -7 -2 -12 3 -11 12 0 9 -5 16 -12 14 -8 -1 -11
2 -7 8 4 6 1 17 -5 25 -13 16 -39 20 -41 8z m-18 -60 c-12 -20 -14 -14 -5 12
4 9 9 14 11 11 3 -2 0 -13 -6 -23z m-21 -59 c0 -2 -7 -4 -15 -4 -8 0 -15 4
-15 10 0 5 7 7 15 4 8 -4 15 -8 15 -10z m65 6 c-3 -5 -12 -7 -20 -3 -21 7 -19
13 6 13 11 0 18 -4 14 -10z m-48 -35 c4 -4 3 -5 -4 -2 -6 4 -13 2 -15 -5 -3
-8 -6 -6 -10 4 -7 17 15 19 29 3z m-80 -27 c-3 -8 -6 -5 -6 6 -1 11 2 17 5 13
3 -3 4 -12 1 -19z m3 -32 c0 -2 -8 -10 -17 -17 -16 -13 -17 -12 -4 4 13 16 21
21 21 13z m-37 -31 c4 -8 3 -16 -1 -19 -4 -3 -9 4 -9 15 -2 23 3 25 10 4z
m-33 -20 c14 -19 14 -19 -2 -6 -10 7 -18 18 -18 24 0 6 1 8 3 6 1 -2 9 -13 17
-24z m-143 -67 c-3 -8 -6 -5 -6 6 -1 11 2 17 5 13 3 -3 4 -12 1 -19z m70 -10
c-3 -8 -6 -5 -6 6 -1 11 2 17 5 13 3 -3 4 -12 1 -19z m-17 -18 c0 -5 -5 -10
-11 -10 -5 0 -7 5 -4 10 3 6 8 10 11 10 2 0 4 -4 4 -10z m-35 -29 c-3 -6 -11
-11 -16 -11 -5 0 -4 6 3 14 14 16 24 13 13 -3z m-115 -85 c0 -3 -4 -8 -10 -11
-5 -3 -10 -1 -10 4 0 6 5 11 10 11 6 0 10 -2 10 -4z m-53 -33 c0 -8 -6 -9 -19
-2 -10 5 -18 11 -18 12 0 2 8 3 18 3 10 0 19 -6 19 -13z m-57 -47 c0 -3 -4 -8
-10 -11 -5 -3 -10 -1 -10 4 0 6 5 11 10 11 6 0 10 -2 10 -4z m-173 -142 c-3
-3 -12 -4 -19 -1 -8 3 -5 6 6 6 11 1 17 -2 13 -5z"/>
<path d="M6775 6684 c-14 -19 -23 -39 -20 -44 3 -6 -1 -10 -11 -10 -13 0 -10
-5 10 -21 14 -11 31 -17 37 -13 7 4 9 3 5 -4 -8 -13 70 -76 84 -67 5 3 7 0 5
-7 -3 -8 8 -21 27 -32 18 -11 46 -30 61 -43 16 -13 33 -21 38 -17 5 3 8 1 7
-4 -2 -5 42 -44 97 -87 55 -43 125 -99 156 -124 31 -25 72 -57 90 -71 18 -14
76 -60 128 -102 53 -43 101 -76 108 -73 7 2 15 -1 19 -7 5 -7 2 -8 -7 -3 -8 5
-5 -1 5 -14 11 -12 26 -19 33 -16 8 2 12 1 9 -4 -3 -5 11 -21 32 -37 20 -15
39 -30 42 -34 3 -3 23 -18 45 -35 36 -26 34 -22 -20 35 -32 36 -65 64 -72 64
-7 -1 -11 2 -8 6 3 4 -44 54 -103 110 -59 56 -133 127 -164 157 -35 33 -62 52
-69 47 -7 -4 -9 -3 -6 3 3 5 -20 36 -53 68 -50 50 -61 56 -74 45 -10 -7 -16
-8 -16 -2 0 6 5 12 12 14 6 2 -12 26 -41 54 -58 53 -71 62 -71 44 0 -6 -5 -8
-11 -4 -8 4 -7 9 2 15 22 13 -31 49 -56 38 -19 -9 -19 -9 -2 4 16 13 14 17
-26 49 -23 20 -67 60 -97 90 -71 71 -91 76 -125 32z m55 -14 c-11 -11 -23 -20
-27 -20 -3 0 2 9 12 20 10 11 22 20 27 20 4 0 -1 -9 -12 -20z m-50 -42 c0 -12
-3 -18 -7 -14 -11 10 -12 36 -2 36 5 0 9 -10 9 -22z m90 -9 c0 -6 -4 -7 -10
-4 -5 3 -10 11 -10 16 0 6 5 7 10 4 6 -3 10 -11 10 -16z m-6 -38 c-2 -3 -12 3
-22 13 -16 17 -16 18 5 5 12 -7 20 -15 17 -18z m40 -23 c-3 -5 -9 -6 -14 -3
-4 3 -11 -1 -13 -7 -4 -8 -6 -7 -6 4 -1 11 6 16 18 15 11 0 17 -5 15 -9z m56
2 c0 -5 -2 -10 -4 -10 -3 0 -8 5 -11 10 -3 6 -1 10 4 10 6 0 11 -4 11 -10z
m20 -46 c0 -2 -14 -4 -31 -4 -16 0 -28 4 -25 9 5 8 56 3 56 -5z m20 -49 c0
-12 -19 -12 -23 0 -4 9 -1 12 9 8 7 -3 14 -7 14 -8z m116 -47 c12 -14 13 -18
3 -10 -9 6 -18 10 -21 7 -2 -3 -5 2 -5 10 0 19 0 19 23 -7z m-55 -11 c-10 -9
-11 -8 -5 6 3 10 9 15 12 12 3 -3 0 -11 -7 -18z m112 -53 c-7 -19 -10 -18 -16
5 -3 13 -1 18 9 14 7 -2 10 -11 7 -19z m61 -42 c2 -4 -4 -8 -14 -8 -10 0 -16
4 -14 8 3 4 9 8 14 8 5 0 11 -4 14 -8z m47 -39 c13 -16 12 -17 -3 -4 -10 7
-18 15 -18 17 0 8 8 3 21 -13z m94 -83 c-3 -5 -11 -10 -16 -10 -6 0 -7 5 -4
10 3 6 11 10 16 10 6 0 7 -4 4 -10z m120 -110 c3 -5 1 -10 -4 -10 -6 0 -11 5
-11 10 0 6 2 10 4 10 3 0 8 -4 11 -10z"/>
<path d="M6432 6338 c-13 -17 27 -77 133 -199 80 -91 115 -142 231 -341 90
-155 189 -272 286 -338 94 -64 207 -174 261 -253 16 -23 33 -41 39 -39 5 1 7
-2 3 -7 -3 -6 2 -25 11 -43 9 -18 21 -44 25 -58 5 -16 6 -7 3 25 -11 89 -65
185 -166 290 -50 52 -95 95 -100 95 -6 0 -4 -8 3 -17 13 -16 12 -17 -3 -4 -10
7 -16 17 -13 21 7 11 -43 50 -58 46 -7 -1 -9 -1 -4 2 4 2 -26 39 -66 82 -40
42 -93 107 -117 143 -24 37 -47 64 -52 61 -4 -3 -1 -12 7 -21 9 -8 13 -18 10
-21 -10 -10 -34 32 -24 44 12 15 -115 264 -128 250 -3 -2 4 -17 14 -33 13 -21
14 -25 2 -16 -10 9 -19 9 -26 2 -6 -6 -10 -5 -10 5 0 8 4 13 7 11 10 -6 7 47
-4 63 -6 11 -11 11 -24 0 -15 -12 -16 -11 -3 4 12 16 9 23 -24 63 -20 25 -40
43 -45 40 -4 -3 -14 3 -21 13 -13 16 -13 16 5 2 11 -8 17 -10 15 -5 -5 12
-143 145 -151 145 -3 0 -10 -6 -16 -12z m43 -28 c3 -6 -1 -7 -9 -4 -18 7 -21
14 -7 14 6 0 13 -4 16 -10z m135 -155 c-7 -9 -15 -13 -19 -10 -3 3 1 10 9 15
21 14 24 12 10 -5z m37 -57 c-3 -7 -5 -2 -5 12 0 14 2 19 5 13 2 -7 2 -19 0
-25z m148 -246 c-3 -3 -11 0 -18 7 -9 10 -8 11 6 5 10 -3 15 -9 12 -12z m100
-132 c3 -5 2 -10 -4 -10 -5 0 -13 5 -16 10 -3 6 -2 10 4 10 5 0 13 -4 16 -10z
m82 -126 c-3 -3 -12 -4 -19 -1 -8 3 -5 6 6 6 11 1 17 -2 13 -5z m83 -64 c0 -5
-7 -10 -15 -10 -8 0 -15 5 -15 10 0 6 7 10 15 10 8 0 15 -4 15 -10z m45 -51
c11 -16 1 -19 -13 -3 -7 8 -8 14 -3 14 5 0 13 -5 16 -11z m28 -19 c3 -11 1
-18 -4 -14 -5 3 -9 12 -9 20 0 20 7 17 13 -6z m102 -90 c3 -5 1 -10 -4 -10 -6
0 -11 5 -11 10 0 6 2 10 4 10 3 0 8 -4 11 -10z"/>
<path d="M4147 6113 c-4 -3 -7 -13 -7 -20 0 -14 -86 -219 -155 -368 -35 -76
-115 -269 -175 -420 -15 -38 -51 -119 -80 -180 -55 -115 -73 -165 -62 -165 13
0 53 80 46 92 -4 7 -3 8 4 4 15 -9 42 45 36 71 -3 12 2 25 13 33 15 12 16 12
6 0 -15 -16 -18 -49 -4 -35 5 6 33 54 62 109 42 80 49 100 38 108 -11 8 -10 9
3 4 13 -4 28 14 61 72 68 118 98 182 92 193 -4 5 -2 8 3 7 6 -2 23 22 39 52
17 30 54 100 83 155 58 109 120 233 120 240 0 3 -6 5 -14 5 -7 0 -34 11 -58
25 -25 14 -48 22 -51 18z m37 -111 c3 -5 -1 -9 -9 -9 -8 0 -15 4 -15 9 0 4 4
8 9 8 6 0 12 -4 15 -8z m31 -12 c3 -5 1 -10 -4 -10 -6 0 -11 5 -11 10 0 6 2
10 4 10 3 0 8 -4 11 -10z m-25 -44 c0 -3 -4 -8 -10 -11 -5 -3 -10 -1 -10 4 0
6 5 11 10 11 6 0 10 -2 10 -4z m-53 -108 c-3 -8 -6 -5 -6 6 -1 11 2 17 5 13 3
-3 4 -12 1 -19z m-96 -41 c-10 -9 -11 -8 -5 6 3 10 9 15 12 12 3 -3 0 -11 -7
-18z m-184 -473 c-3 -3 -12 -4 -19 -1 -8 3 -5 6 6 6 11 1 17 -2 13 -5z m-37
-88 c0 -2 -7 -7 -16 -10 -8 -3 -12 -2 -9 4 6 10 25 14 25 6z"/>
<path d="M6038 6094 c-44 -22 -63 -44 -38 -44 6 0 10 -4 10 -9 0 -11 69 -156
117 -247 21 -39 49 -94 61 -122 13 -29 28 -50 33 -47 5 4 7 0 4 -7 -2 -7 6
-32 18 -54 12 -23 60 -118 107 -210 47 -93 87 -171 90 -174 3 -3 16 -26 29
-52 14 -26 29 -44 34 -41 6 3 7 1 4 -4 -4 -6 8 -37 25 -69 37 -69 36 -69 43
-62 3 3 -8 34 -24 69 -16 35 -46 107 -66 159 -21 52 -44 109 -52 125 -17 35
-69 164 -143 353 -38 95 -55 130 -62 120 -7 -9 -8 -7 -3 8 3 12 -4 46 -16 75
-11 30 -25 65 -30 78 -8 20 -11 21 -26 10 -15 -13 -15 -12 -4 6 11 17 8 31
-21 93 -18 39 -35 72 -38 71 -3 -1 -26 -12 -52 -25z m26 -19 c3 -8 1 -15 -4
-15 -6 0 -10 7 -10 15 0 8 2 15 4 15 2 0 6 -7 10 -15z m-24 -9 c0 -3 -4 -8
-10 -11 -5 -3 -10 -1 -10 4 0 6 5 11 10 11 6 0 10 -2 10 -4z m84 -92 c3 -8 2
-12 -4 -9 -6 3 -10 10 -10 16 0 14 7 11 14 -7z m-39 -24 c3 -5 2 -10 -4 -10
-5 0 -13 5 -16 10 -3 6 -2 10 4 10 5 0 13 -4 16 -10z m98 -75 c-3 -9 -8 -13
-11 -11 -3 3 -11 -2 -19 -12 -13 -15 -13 -15 -4 5 9 18 17 25 38 32 1 1 0 -6
-4 -14z m17 -25 c0 -5 -5 -10 -11 -10 -5 0 -7 5 -4 10 3 6 8 10 11 10 2 0 4
-4 4 -10z m65 -180 c3 -6 -1 -7 -9 -4 -18 7 -21 14 -7 14 6 0 13 -4 16 -10z
m-4 -67 c13 -16 12 -17 -3 -4 -10 7 -18 15 -18 17 0 8 8 3 21 -13z m22 -38
c-9 -15 -11 -15 -23 0 -11 13 -10 15 4 9 10 -4 16 -1 16 7 0 7 3 10 6 6 3 -3
2 -13 -3 -22z m52 -75 c-3 -5 -12 -10 -18 -10 -7 0 -6 4 3 10 19 12 23 12 15
0z m9 -35 c-4 -8 -10 -12 -15 -9 -11 6 -2 24 11 24 5 0 7 -7 4 -15z m46 -115
c0 -5 -2 -10 -4 -10 -3 0 -8 5 -11 10 -3 6 -1 10 4 10 6 0 11 -4 11 -10z m17
-42 c2 -18 0 -20 -7 -8 -12 18 -13 30 -2 30 4 0 9 -10 9 -22z m43 -87 c0 -9
-6 -4 -15 13 -8 15 -15 36 -15 45 0 9 6 4 15 -13 8 -15 15 -36 15 -45z"/>
<path d="M4645 5932 c-5 -4 -12 -14 -13 -22 -2 -8 -12 -56 -23 -107 -20 -98
-88 -319 -135 -443 -28 -73 -28 -80 -30 -291 -3 -226 -11 -301 -46 -408 -19
-59 -99 -224 -119 -246 -5 -5 -9 -14 -9 -20 0 -5 5 -3 10 5 14 21 13 -5 -1
-32 -19 -35 -2 -30 21 6 12 20 18 41 14 48 -4 7 -3 10 1 5 9 -7 33 33 111 183
49 94 51 101 27 94 -10 -2 -8 1 5 7 12 7 23 20 23 31 1 10 2 21 4 26 11 43 16
108 18 282 3 165 7 212 20 242 9 20 14 45 10 55 -3 10 -2 14 2 10 8 -7 79 173
89 226 2 12 11 47 19 78 18 66 34 279 21 279 -5 0 -13 -4 -19 -8z m-40 -312
c3 -6 -1 -7 -9 -4 -18 7 -21 14 -7 14 6 0 13 -4 16 -10z m-83 -226 c-9 -16
-10 -14 -9 8 1 15 6 23 11 18 4 -4 4 -16 -2 -26z m-2 -40 c0 -8 -19 -13 -24
-6 -3 5 1 9 9 9 8 0 15 -2 15 -3z m-7 -51 c-7 -2 -21 -2 -30 0 -10 3 -4 5 12
5 17 0 24 -2 18 -5z m-39 -235 c-3 -4 0 -8 7 -8 7 0 10 -2 7 -5 -7 -7 -38 5
-38 14 0 4 7 8 15 8 8 0 12 -4 9 -9z m16 -87 c0 -5 -7 -12 -16 -15 -14 -5 -15
-4 -4 9 14 17 20 19 20 6z m-33 -183 c-3 -8 -6 -5 -6 6 -1 11 2 17 5 13 3 -3
4 -12 1 -19z"/>
<path d="M5566 5932 c-11 -18 16 -153 60 -297 66 -213 73 -241 85 -325 6 -41
12 -84 14 -95 2 -11 4 -39 4 -63 1 -26 5 -41 11 -37 5 3 7 0 4 -8 -3 -8 5 -49
17 -93 12 -43 24 -88 27 -99 3 -11 11 -29 17 -40 7 -11 24 -41 39 -68 24 -41
29 -46 46 -37 14 7 20 7 20 0 0 -5 -7 -10 -15 -10 -31 0 -8 -42 26 -47 13 -2
25 -6 28 -10 3 -3 -4 -3 -16 0 -13 3 -23 4 -23 2 0 -6 61 -119 70 -130 20 -25
43 -146 44 -233 1 -101 12 -93 22 17 12 125 -18 239 -103 390 -27 48 -38 60
-45 50 -8 -11 -9 -10 -5 3 3 9 -7 47 -22 85 -39 96 -59 173 -76 294 -8 57 -20
133 -25 169 -11 70 -92 358 -117 418 -9 20 -23 66 -33 102 -10 42 -22 66 -32
68 -9 2 -19 -1 -22 -6z m94 -322 c6 -11 8 -20 6 -20 -3 0 -10 9 -16 20 -6 11
-8 20 -6 20 3 0 10 -9 16 -20z m107 -327 c4 -9 1 -19 -5 -21 -7 -2 -10 -8 -7
-13 4 -5 -1 -6 -9 -3 -14 5 -14 8 0 22 15 15 15 16 -2 23 -17 7 -18 8 -1 8 10
1 21 -7 24 -16z m24 -236 c-6 -8 -8 -17 -4 -20 3 -4 1 -7 -5 -7 -16 0 -15 27
1 33 19 8 20 8 8 -6z m20 -60 c-10 -9 -11 -8 -5 6 3 10 9 15 12 12 3 -3 0 -11
-7 -18z m6 -72 c0 -8 -4 -12 -9 -9 -5 3 -6 10 -3 15 9 13 12 11 12 -6z m28
-15 c3 -5 1 -10 -4 -10 -6 0 -11 5 -11 10 0 6 2 10 4 10 3 0 8 -4 11 -10z m30
-60 c3 -5 1 -10 -4 -10 -6 0 -11 5 -11 10 0 6 2 10 4 10 3 0 8 -4 11 -10z"/>
<path d="M5099 5878 c-1 -7 -1 -16 0 -20 2 -14 -11 -8 -24 9 -10 14 -12 -13
-10 -142 1 -88 3 -232 5 -320 1 -103 6 -165 13 -174 9 -11 9 -13 0 -8 -8 5
-10 -4 -7 -30 2 -21 8 -139 14 -263 15 -326 22 -430 30 -430 3 0 6 21 7 48 0
26 3 88 7 137 13 181 15 223 21 365 6 153 10 269 21 623 l6 217 -41 0 c-25 0
-41 -5 -42 -12z m69 -22 c2 -10 0 -22 -6 -28 -6 -6 -8 0 -5 19 4 22 2 25 -6
13 -9 -13 -11 -12 -11 3 0 23 24 17 28 -7z m-37 -49 c-10 -9 -11 -8 -5 6 3 10
9 15 12 12 3 -3 0 -11 -7 -18z m-4 -33 c-3 -3 -12 -4 -19 -1 -8 3 -5 6 6 6 11
1 17 -2 13 -5z m26 -39 c-3 -9 -8 -14 -10 -11 -3 3 -2 9 2 15 9 16 15 13 8 -4z
m-16 -131 c-3 -3 -12 -4 -19 -1 -8 3 -5 6 6 6 11 1 17 -2 13 -5z m-20 -201 c0
-10 -4 -10 -16 -1 -9 7 -18 13 -20 15 -2 1 5 1 16 0 11 0 20 -7 20 -14z m33
-85 c0 -18 -2 -20 -9 -8 -6 8 -7 18 -5 22 9 14 14 9 14 -14z m-27 -33 c-3 -9
-8 -14 -10 -11 -3 3 -2 9 2 15 9 16 15 13 8 -4z m24 -47 c-3 -8 -6 -5 -6 6 -1
11 2 17 5 13 3 -3 4 -12 1 -19z m-7 -174 c0 -8 -19 -13 -24 -6 -3 5 1 9 9 9 8
0 15 -2 15 -3z m-33 -96 c-3 -8 -6 -5 -6 6 -1 11 2 17 5 13 3 -3 4 -12 1 -19z
m33 -9 c0 -6 -4 -7 -10 -4 -5 3 -10 11 -10 16 0 6 5 7 10 4 6 -3 10 -11 10
-16z m-20 -48 c0 -6 -4 -12 -8 -15 -5 -3 -9 1 -9 9 0 8 4 15 9 15 4 0 8 -4 8
-9z m4 -96 c-4 -8 -8 -15 -10 -15 -2 0 -4 7 -4 15 0 8 4 15 10 15 5 0 7 -7 4
-15z m-1 -76 c-9 -9 -12 -7 -10 9 1 14 5 18 11 12 7 -7 6 -14 -1 -21z"/>
</g>
</svg>
