<svg width="120" height="180" viewBox="0 0 120 180" xmlns="http://www.w3.org/2000/svg">
  <defs>
    <!-- Gradient for card back -->
    <radialGradient id="backGradient" cx="50%" cy="50%" r="70%">
      <stop offset="0%" style="stop-color:#1a365d;stop-opacity:1" />
      <stop offset="100%" style="stop-color:#2d4a66;stop-opacity:1" />
    </radialGradient>
    
    <!-- Pattern for decorative design -->
    <pattern id="backPattern" x="0" y="0" width="40" height="40" patternUnits="userSpaceOnUse">
      <circle cx="20" cy="20" r="8" fill="#4a90e2" opacity="0.3"/>
      <circle cx="20" cy="20" r="4" fill="#74acdf" opacity="0.5"/>
    </pattern>
  </defs>
  
  <!-- Card shadow -->
  <rect x="3" y="3" width="114" height="174" rx="8" ry="8" fill="#000" opacity="0.2"/>
  
  <!-- Main card back background -->
  <rect x="5" y="5" width="110" height="170" rx="8" ry="8" 
        fill="url(#backGradient)" stroke="#1a365d" stroke-width="2"/>
  
  <!-- Decorative pattern overlay -->
  <rect x="5" y="5" width="110" height="170" rx="8" ry="8" fill="url(#backPattern)"/>
  
  <!-- Central ornate design -->
  <g transform="translate(60, 90)" fill="#74acdf" opacity="0.8">
    <!-- Outer decorative ring -->
    <circle cx="0" cy="0" r="35" fill="none" stroke="#74acdf" stroke-width="2" opacity="0.6"/>
    <circle cx="0" cy="0" r="25" fill="none" stroke="#87ceeb" stroke-width="1" opacity="0.8"/>
    
    <!-- Central star pattern -->
    <g fill="#87ceeb">
      <polygon points="0,-15 3,-5 15,-5 6,2 9,12 0,6 -9,12 -6,2 -15,-5 -3,-5" opacity="0.9"/>
    </g>
    
    <!-- Corner decorative elements -->
    <g opacity="0.6">
      <path d="M-20,-20 Q-15,-25 -10,-20 Q-15,-15 -20,-20" fill="#87ceeb"/>
      <path d="M20,-20 Q25,-25 30,-20 Q25,-15 20,-20" fill="#87ceeb"/>
      <path d="M-20,20 Q-15,15 -10,20 Q-15,25 -20,20" fill="#87ceeb"/>
      <path d="M20,20 Q25,15 30,20 Q25,25 20,20" fill="#87ceeb"/>
    </g>
  </g>
  
  <!-- Border accent -->
  <rect x="7" y="7" width="106" height="166" rx="6" ry="6" 
        fill="none" stroke="#87ceeb" stroke-width="1" opacity="0.4"/>
</svg>